<svg width="468" height="475" viewBox="0 0 468 475" fill="none" xmlns="http://www.w3.org/2000/svg">
<path fill-rule="evenodd" clip-rule="evenodd" d="M308.007 286.519C304.95 300.238 284.439 310.734 277.681 327.16C269.846 326.062 269.352 332.336 263.528 333.254C265.098 335.064 265.702 337.84 265.55 341.381C255.751 347.602 245.27 341.016 243.3 355.607C239.677 355.865 239.036 353.116 235.213 353.57C231.648 355.411 231.868 361.052 227.126 361.701C233.297 372.513 226.964 385.351 233.192 392.179C227.331 413.144 221.35 415.18 225.099 440.946C212.139 439.078 207.55 450.735 210.947 459.235C203.952 457.584 202.409 463.029 198.811 459.235C196.485 461.636 196.522 466.417 196.79 471.43C155.604 490.743 168.37 423.729 142.187 410.468C136.888 368.719 108.673 344.029 113.877 302.766C109.834 305.7 106.326 283.759 113.877 278.382C106.142 265.913 112.58 258.199 107.812 247.904C106.993 266.726 97.7138 277.042 75.4536 274.324C68.7635 264.114 61.0966 254.88 53.2091 245.873C57.2946 240.406 77.2495 246.168 79.5023 233.678C69.7192 244.042 41.2415 235.694 51.1874 219.457C48.1837 219.394 42.1499 227.773 43.1004 219.457C45.8311 213.4 51.639 220.381 53.2091 211.326C64.5624 211.827 72.8279 218.655 81.5241 209.295C83.8924 209.622 83.2307 212.999 83.5511 215.389C85.1895 215.004 85.5676 213.352 87.5946 213.358C89.2014 207.617 85.9141 189.359 75.4588 188.969C73.999 182.758 77.5278 181.566 77.4806 176.774C76.0102 174.616 71.3996 176.542 67.3719 172.711C68.5797 159.704 76.6351 153.573 87.5946 150.359C87.5946 152.391 87.5946 154.428 87.5946 156.454C90.2044 153.657 96.38 154.443 101.752 154.422C108.006 141.742 123.624 138.471 126.018 121.907C137.093 118.784 146.173 102.917 144.219 93.4554C146.372 88.8489 150.353 86.0733 156.355 85.3293C150.248 77.9156 142.124 72.5333 132.089 69.0718C135.497 58.0699 126.564 40.4405 140.176 36.5569C135.875 29.37 131.385 22.3573 119.953 22.3362C124.453 -1.55135 144.02 5.11311 158.361 0C168.086 10.9861 181.656 20.4208 188.692 28.4519C201.747 24.563 217.931 15.7667 229.138 26.4204C230.566 33.9555 225.682 35.1427 227.116 42.6779C216.193 41.1845 221.98 56.4869 208.915 52.8407C206.982 56.6241 214.97 59.6318 208.915 60.9721C209.403 64.5444 212.391 65.5998 217.002 65.0352C215.542 71.2458 219.071 72.4384 219.024 77.2296C214.066 75.673 207.361 86.9598 206.888 77.2296C196.595 81.8414 210.312 87.4558 206.888 97.5501C216.188 99.1226 227.699 110.367 239.246 115.839C235.539 124.303 225.766 126.677 227.111 140.223C235.728 146.502 250.106 154.164 265.534 158.512C265.881 158.612 265.266 162.184 265.534 162.58C274.614 163.577 280.684 161.551 287.779 160.548C299.962 176.405 315.605 175.455 340.355 176.806C338.732 167.361 339.556 157.361 338.333 152.422C340.192 148.876 344.65 147.937 350.469 148.359C347.486 182.204 376.048 165.134 394.963 164.617C397.651 155.145 390.452 155.599 386.87 152.422C386.492 145.916 396.491 151.889 401.023 146.328C401.842 137.189 421.329 132.35 425.289 119.913C435.781 128.366 439.404 118.003 449.555 115.85C447.034 125.284 459.081 120.388 453.604 132.107C462.468 133.162 460.241 132.746 467.756 134.139C470.046 142.713 455.2 145.742 465.734 150.396C437.619 149.42 435.476 186.483 431.354 211.358C427.752 215.152 426.213 209.706 419.218 211.358C417.401 228.222 417.68 234.675 415.17 249.967C413.374 248.717 411.557 247.508 411.126 249.967C407.004 239.883 406.221 226.444 401.012 217.452C396.9 219.415 396.643 225.257 396.969 231.678C388.96 229.267 386.813 226.961 386.855 213.389C393.13 209.537 399.411 205.68 401.007 197.132C391.182 192.873 378.799 198.541 366.627 195.1C364.616 190.14 365.96 190.773 364.605 182.906C361.118 180.352 349.828 181.17 346.409 176.811C344.204 177.313 345.033 180.853 342.361 180.88C341.982 190.742 354.165 187.982 354.496 197.137C345.543 194.24 349.203 204.013 342.361 203.232C341.436 209.579 346.688 209.727 352.475 209.326C347.15 226.254 360.73 232.528 358.545 251.999C344.188 252.242 338.984 256.964 328.208 264.193C335.676 279.163 322.484 283.87 312.034 290.608C308.611 291.326 308.243 288.999 308.007 286.519Z" fill="white"/>
<circle cx="217" cy="109" r="5" fill="#E5AD1D"/>
<circle cx="124" cy="163" r="5" fill="#E5AD1D"/>
<circle cx="218" cy="357" r="5" fill="#E5AD1D"/>
<circle cx="206" cy="317.396" r="5" fill="#E5AD1D"/>
<circle cx="249" cy="255" r="5" fill="#E5AD1D"/>
<circle cx="166" cy="367" r="5" fill="#E5AD1D"/>
<circle cx="134" cy="297" r="5" fill="#E5AD1D"/>
<circle cx="97" cy="235" r="5" fill="#E5AD1D"/>
<circle cx="196" cy="223" r="5" fill="#E5AD1D"/>
<circle cx="298" cy="265" r="5" fill="#E5AD1D"/>
<circle cx="313" cy="230" r="5" fill="#E5AD1D"/>
<circle cx="189" cy="85" r="5" fill="#E5AD1D"/>
<rect x="200" y="69" width="148" height="24" fill="#2F4858"/>
<rect x="309" y="272.396" width="62" height="24" fill="#2F4858"/>
<rect x="209" y="377" width="133" height="24" fill="#2F4858"/>
<rect x="222" y="310" width="89" height="24" fill="#2F4858"/>
<rect x="145" y="266" width="109" height="24" fill="#2F4858"/>
<rect x="45" y="360" width="92" height="24" fill="#2F4858"/>
<rect x="7" y="290" width="108" height="24" fill="#2F4858"/>
<rect x="6" y="225.396" width="68" height="24" fill="#2F4858"/>
<rect y="149.396" width="91" height="24" fill="#2F4858"/>
<rect x="231" y="102" width="107" height="24" fill="#2F4858"/>
<rect x="340" y="236.396" width="91" height="24" fill="#2F4858"/>
<rect x="189" y="197" width="143" height="22" fill="#2F4858"/>
<path d="M220.544 395L219.504 391.976H215.2L214.176 395H212L216.192 383.528H218.528L222.72 395H220.544ZM217.984 387.272C217.941 387.123 217.877 386.92 217.792 386.664C217.707 386.408 217.621 386.147 217.536 385.88C217.461 385.603 217.403 385.373 217.36 385.192C217.307 385.405 217.237 385.651 217.152 385.928C217.077 386.205 217.003 386.467 216.928 386.712C216.853 386.957 216.8 387.144 216.768 387.272L215.76 390.216H218.976L217.984 387.272ZM228.67 386.168C229.641 386.168 230.398 386.419 230.942 386.92C231.497 387.421 231.774 388.232 231.774 389.352V395H229.758V389.752C229.758 388.451 229.225 387.8 228.158 387.8C227.348 387.8 226.793 388.056 226.494 388.568C226.196 389.08 226.046 389.811 226.046 390.76V395H224.03V386.328H225.582L225.87 387.464H225.982C226.26 387.016 226.638 386.691 227.118 386.488C227.609 386.275 228.126 386.168 228.67 386.168ZM237.16 395.16C236.147 395.16 235.331 394.781 234.712 394.024C234.093 393.267 233.784 392.152 233.784 390.68C233.784 389.187 234.099 388.061 234.728 387.304C235.357 386.547 236.184 386.168 237.208 386.168C237.848 386.168 238.371 386.291 238.776 386.536C239.192 386.781 239.523 387.08 239.768 387.432H239.864C239.832 387.283 239.8 387.053 239.768 386.744C239.736 386.435 239.72 386.147 239.72 385.88V382.84H241.736V395H240.168L239.8 393.864H239.72C239.475 394.227 239.149 394.536 238.744 394.792C238.339 395.037 237.811 395.16 237.16 395.16ZM237.768 393.528C238.515 393.528 239.037 393.315 239.336 392.888C239.645 392.461 239.805 391.816 239.816 390.952V390.696C239.816 389.768 239.667 389.059 239.368 388.568C239.08 388.067 238.536 387.816 237.736 387.816C237.117 387.816 236.643 388.072 236.312 388.584C235.992 389.085 235.832 389.795 235.832 390.712C235.832 391.629 235.997 392.328 236.328 392.808C236.659 393.288 237.139 393.528 237.768 393.528ZM246.328 385.736C246.328 386.077 246.312 386.413 246.28 386.744C246.258 387.064 246.237 387.304 246.216 387.464H246.344C246.621 387.027 246.984 386.701 247.432 386.488C247.88 386.275 248.376 386.168 248.92 386.168C249.901 386.168 250.669 386.419 251.224 386.92C251.778 387.421 252.056 388.232 252.056 389.352V395H250.04V389.752C250.04 388.451 249.506 387.8 248.44 387.8C247.629 387.8 247.074 388.056 246.776 388.568C246.477 389.08 246.328 389.811 246.328 390.76V395H244.312V382.84H246.328V385.736ZM259.121 386.168C259.26 386.168 259.409 386.173 259.569 386.184C259.74 386.195 259.884 386.216 260.001 386.248L259.825 388.12C259.719 388.099 259.591 388.083 259.441 388.072C259.292 388.051 259.159 388.04 259.041 388.04C258.615 388.04 258.215 388.131 257.841 388.312C257.468 388.483 257.164 388.755 256.929 389.128C256.705 389.491 256.593 389.949 256.593 390.504V395H254.577V386.328H256.129L256.417 387.832H256.513C256.769 387.373 257.121 386.984 257.569 386.664C258.017 386.333 258.535 386.168 259.121 386.168ZM264.752 386.168C265.872 386.168 266.72 386.413 267.296 386.904C267.883 387.395 268.176 388.152 268.176 389.176V395H266.752L266.352 393.8H266.288C265.915 394.269 265.52 394.616 265.104 394.84C264.688 395.053 264.123 395.16 263.408 395.16C262.629 395.16 261.984 394.941 261.472 394.504C260.96 394.067 260.704 393.389 260.704 392.472C260.704 391.576 261.029 390.904 261.68 390.456C262.341 390.008 263.339 389.757 264.672 389.704L266.176 389.656V389.224C266.176 388.68 266.043 388.291 265.776 388.056C265.509 387.811 265.136 387.688 264.656 387.688C264.219 387.688 263.797 387.752 263.392 387.88C262.997 388.008 262.603 388.157 262.208 388.328L261.568 386.92C261.995 386.696 262.48 386.515 263.024 386.376C263.579 386.237 264.155 386.168 264.752 386.168ZM265.12 390.936C264.235 390.968 263.621 391.123 263.28 391.4C262.939 391.667 262.768 392.029 262.768 392.488C262.768 392.904 262.885 393.203 263.12 393.384C263.365 393.555 263.685 393.64 264.08 393.64C264.667 393.64 265.163 393.475 265.568 393.144C265.973 392.803 266.176 392.301 266.176 391.64V390.904L265.12 390.936ZM278.459 383.576C279.941 383.576 281.019 383.885 281.691 384.504C282.373 385.123 282.715 385.976 282.715 387.064C282.715 387.715 282.576 388.328 282.299 388.904C282.021 389.469 281.552 389.928 280.891 390.28C280.24 390.621 279.355 390.792 278.235 390.792H277.099V395H275.051V383.576H278.459ZM278.331 385.272H277.099V389.096H278.027C278.859 389.096 279.499 388.947 279.947 388.648C280.405 388.339 280.635 387.837 280.635 387.144C280.635 386.515 280.448 386.045 280.075 385.736C279.701 385.427 279.12 385.272 278.331 385.272ZM289.309 386.168C289.447 386.168 289.597 386.173 289.757 386.184C289.927 386.195 290.071 386.216 290.189 386.248L290.013 388.12C289.906 388.099 289.778 388.083 289.629 388.072C289.479 388.051 289.346 388.04 289.229 388.04C288.802 388.04 288.402 388.131 288.029 388.312C287.655 388.483 287.351 388.755 287.117 389.128C286.893 389.491 286.781 389.949 286.781 390.504V395H284.765V386.328H286.317L286.605 387.832H286.701C286.957 387.373 287.309 386.984 287.757 386.664C288.205 386.333 288.722 386.168 289.309 386.168ZM294.94 386.168C296.06 386.168 296.908 386.413 297.484 386.904C298.07 387.395 298.364 388.152 298.364 389.176V395H296.94L296.54 393.8H296.476C296.102 394.269 295.708 394.616 295.292 394.84C294.876 395.053 294.31 395.16 293.596 395.16C292.817 395.16 292.172 394.941 291.66 394.504C291.148 394.067 290.892 393.389 290.892 392.472C290.892 391.576 291.217 390.904 291.868 390.456C292.529 390.008 293.526 389.757 294.86 389.704L296.364 389.656V389.224C296.364 388.68 296.23 388.291 295.964 388.056C295.697 387.811 295.324 387.688 294.844 387.688C294.406 387.688 293.985 387.752 293.58 387.88C293.185 388.008 292.79 388.157 292.396 388.328L291.756 386.92C292.182 386.696 292.668 386.515 293.212 386.376C293.766 386.237 294.342 386.168 294.94 386.168ZM295.308 390.936C294.422 390.968 293.809 391.123 293.468 391.4C293.126 391.667 292.956 392.029 292.956 392.488C292.956 392.904 293.073 393.203 293.308 393.384C293.553 393.555 293.873 393.64 294.268 393.64C294.854 393.64 295.35 393.475 295.756 393.144C296.161 392.803 296.364 392.301 296.364 391.64V390.904L295.308 390.936ZM303.754 395.16C302.74 395.16 301.924 394.781 301.306 394.024C300.687 393.267 300.378 392.152 300.378 390.68C300.378 389.187 300.692 388.061 301.322 387.304C301.951 386.547 302.778 386.168 303.802 386.168C304.442 386.168 304.964 386.291 305.37 386.536C305.786 386.781 306.116 387.08 306.362 387.432H306.458C306.426 387.283 306.394 387.053 306.362 386.744C306.33 386.435 306.314 386.147 306.314 385.88V382.84H308.33V395H306.762L306.394 393.864H306.314C306.068 394.227 305.743 394.536 305.338 394.792C304.932 395.037 304.404 395.16 303.754 395.16ZM304.362 393.528C305.108 393.528 305.631 393.315 305.93 392.888C306.239 392.461 306.399 391.816 306.41 390.952V390.696C306.41 389.768 306.26 389.059 305.962 388.568C305.674 388.067 305.13 387.816 304.33 387.816C303.711 387.816 303.236 388.072 302.906 388.584C302.586 389.085 302.426 389.795 302.426 390.712C302.426 391.629 302.591 392.328 302.922 392.808C303.252 393.288 303.732 393.528 304.362 393.528ZM314.393 386.168C315.556 386.168 316.473 386.515 317.145 387.208C317.828 387.901 318.169 388.867 318.169 390.104V391.128H312.441C312.463 391.917 312.681 392.531 313.097 392.968C313.513 393.395 314.089 393.608 314.825 393.608C315.38 393.608 315.881 393.555 316.329 393.448C316.777 393.331 317.236 393.165 317.705 392.952V394.568C317.279 394.771 316.836 394.92 316.377 395.016C315.919 395.112 315.369 395.16 314.729 395.16C313.887 395.16 313.135 395 312.473 394.68C311.823 394.349 311.311 393.853 310.937 393.192C310.575 392.531 310.393 391.709 310.393 390.728C310.393 389.245 310.761 388.115 311.497 387.336C312.233 386.557 313.199 386.168 314.393 386.168ZM314.393 387.656C313.849 387.656 313.407 387.832 313.065 388.184C312.735 388.525 312.543 389.037 312.489 389.72H316.217C316.207 389.123 316.052 388.632 315.753 388.248C315.465 387.853 315.012 387.656 314.393 387.656ZM326.106 392.488C326.106 393.363 325.792 394.029 325.162 394.488C324.544 394.936 323.653 395.16 322.49 395.16C321.882 395.16 321.36 395.117 320.922 395.032C320.496 394.947 320.08 394.813 319.674 394.632V392.92C320.101 393.123 320.57 393.293 321.082 393.432C321.605 393.571 322.096 393.64 322.554 393.64C323.109 393.64 323.509 393.555 323.754 393.384C324 393.213 324.122 392.984 324.122 392.696C324.122 392.525 324.074 392.376 323.978 392.248C323.882 392.109 323.69 391.96 323.402 391.8C323.125 391.64 322.709 391.443 322.154 391.208C321.6 390.995 321.136 390.776 320.762 390.552C320.4 390.317 320.122 390.045 319.93 389.736C319.749 389.427 319.658 389.027 319.658 388.536C319.658 387.757 319.962 387.171 320.57 386.776C321.189 386.371 322.01 386.168 323.034 386.168C323.568 386.168 324.069 386.221 324.538 386.328C325.018 386.435 325.498 386.595 325.978 386.808L325.338 388.296C324.933 388.125 324.538 387.981 324.154 387.864C323.77 387.747 323.376 387.688 322.97 387.688C322.085 387.688 321.642 387.939 321.642 388.44C321.642 388.621 321.696 388.776 321.802 388.904C321.92 389.032 322.117 389.171 322.394 389.32C322.682 389.459 323.088 389.629 323.61 389.832C324.122 390.035 324.565 390.248 324.938 390.472C325.312 390.685 325.6 390.952 325.802 391.272C326.005 391.592 326.106 391.997 326.106 392.488ZM330.062 385.736C330.062 386.077 330.046 386.413 330.014 386.744C329.993 387.064 329.971 387.304 329.95 387.464H330.078C330.355 387.027 330.718 386.701 331.166 386.488C331.614 386.275 332.11 386.168 332.654 386.168C333.635 386.168 334.403 386.419 334.958 386.92C335.513 387.421 335.79 388.232 335.79 389.352V395H333.774V389.752C333.774 388.451 333.241 387.8 332.174 387.8C331.363 387.8 330.809 388.056 330.51 388.568C330.211 389.08 330.062 389.811 330.062 390.76V395H328.046V382.84H330.062V385.736Z" fill="white"/>
<path d="M230.584 328H228.536V318.304H225.256V316.576H233.864V318.304H230.584V328ZM237.784 319.168C238.947 319.168 239.864 319.515 240.536 320.208C241.219 320.901 241.56 321.867 241.56 323.104V324.128H235.832C235.853 324.917 236.072 325.531 236.488 325.968C236.904 326.395 237.48 326.608 238.216 326.608C238.771 326.608 239.272 326.555 239.72 326.448C240.168 326.331 240.627 326.165 241.096 325.952V327.568C240.669 327.771 240.227 327.92 239.768 328.016C239.309 328.112 238.76 328.16 238.12 328.16C237.277 328.16 236.525 328 235.864 327.68C235.213 327.349 234.701 326.853 234.328 326.192C233.965 325.531 233.784 324.709 233.784 323.728C233.784 322.245 234.152 321.115 234.888 320.336C235.624 319.557 236.589 319.168 237.784 319.168ZM237.784 320.656C237.24 320.656 236.797 320.832 236.456 321.184C236.125 321.525 235.933 322.037 235.88 322.72H239.608C239.597 322.123 239.443 321.632 239.144 321.248C238.856 320.853 238.403 320.656 237.784 320.656ZM245.609 328H243.593V315.84H245.609V328ZM251.643 319.168C252.763 319.168 253.611 319.413 254.187 319.904C254.773 320.395 255.067 321.152 255.067 322.176V328H253.643L253.243 326.8H253.179C252.805 327.269 252.411 327.616 251.995 327.84C251.579 328.053 251.013 328.16 250.299 328.16C249.52 328.16 248.875 327.941 248.363 327.504C247.851 327.067 247.595 326.389 247.595 325.472C247.595 324.576 247.92 323.904 248.571 323.456C249.232 323.008 250.229 322.757 251.563 322.704L253.067 322.656V322.224C253.067 321.68 252.933 321.291 252.667 321.056C252.4 320.811 252.027 320.688 251.547 320.688C251.109 320.688 250.688 320.752 250.283 320.88C249.888 321.008 249.493 321.157 249.099 321.328L248.459 319.92C248.885 319.696 249.371 319.515 249.915 319.376C250.469 319.237 251.045 319.168 251.643 319.168ZM252.011 323.936C251.125 323.968 250.512 324.123 250.171 324.4C249.829 324.667 249.659 325.029 249.659 325.488C249.659 325.904 249.776 326.203 250.011 326.384C250.256 326.555 250.576 326.64 250.971 326.64C251.557 326.64 252.053 326.475 252.459 326.144C252.864 325.803 253.067 325.301 253.067 324.64V323.904L252.011 323.936ZM262.233 319.168C263.204 319.168 263.961 319.419 264.505 319.92C265.06 320.421 265.337 321.232 265.337 322.352V328H263.321V322.752C263.321 321.451 262.788 320.8 261.721 320.8C260.91 320.8 260.356 321.056 260.057 321.568C259.758 322.08 259.609 322.811 259.609 323.76V328H257.593V319.328H259.145L259.433 320.464H259.545C259.822 320.016 260.201 319.691 260.681 319.488C261.172 319.275 261.689 319.168 262.233 319.168ZM270.771 319.168C271.869 319.168 272.728 319.595 273.347 320.448H273.427L273.619 319.328H275.299V328.064C275.299 329.301 274.947 330.24 274.243 330.88C273.549 331.52 272.509 331.84 271.123 331.84C270.504 331.84 269.933 331.797 269.411 331.712C268.888 331.637 268.392 331.504 267.923 331.312V329.648C268.915 330.096 270.024 330.32 271.251 330.32C271.912 330.32 272.413 330.133 272.755 329.76C273.107 329.397 273.283 328.864 273.283 328.16V327.936C273.283 327.776 273.288 327.589 273.299 327.376C273.309 327.163 273.325 326.992 273.347 326.864H273.283C272.984 327.312 272.616 327.643 272.179 327.856C271.752 328.059 271.267 328.16 270.723 328.16C269.667 328.16 268.84 327.765 268.243 326.976C267.645 326.187 267.347 325.088 267.347 323.68C267.347 322.272 267.645 321.168 268.243 320.368C268.851 319.568 269.693 319.168 270.771 319.168ZM271.299 320.816C270.04 320.816 269.411 321.781 269.411 323.712C269.411 325.611 270.051 326.56 271.331 326.56C272.035 326.56 272.552 326.368 272.883 325.984C273.224 325.589 273.395 324.928 273.395 324V323.696C273.395 322.672 273.224 321.936 272.883 321.488C272.552 321.04 272.024 320.816 271.299 320.816ZM281.33 319.168C282.45 319.168 283.298 319.413 283.874 319.904C284.461 320.395 284.754 321.152 284.754 322.176V328H283.33L282.93 326.8H282.866C282.493 327.269 282.098 327.616 281.682 327.84C281.266 328.053 280.701 328.16 279.986 328.16C279.207 328.16 278.562 327.941 278.05 327.504C277.538 327.067 277.282 326.389 277.282 325.472C277.282 324.576 277.607 323.904 278.258 323.456C278.919 323.008 279.917 322.757 281.25 322.704L282.754 322.656V322.224C282.754 321.68 282.621 321.291 282.354 321.056C282.087 320.811 281.714 320.688 281.234 320.688C280.797 320.688 280.375 320.752 279.97 320.88C279.575 321.008 279.181 321.157 278.786 321.328L278.146 319.92C278.573 319.696 279.058 319.515 279.602 319.376C280.157 319.237 280.733 319.168 281.33 319.168ZM281.698 323.936C280.813 323.968 280.199 324.123 279.858 324.4C279.517 324.667 279.346 325.029 279.346 325.488C279.346 325.904 279.463 326.203 279.698 326.384C279.943 326.555 280.263 326.64 280.658 326.64C281.245 326.64 281.741 326.475 282.146 326.144C282.551 325.803 282.754 325.301 282.754 324.64V323.904L281.698 323.936ZM291.92 319.168C292.891 319.168 293.648 319.419 294.192 319.92C294.747 320.421 295.024 321.232 295.024 322.352V328H293.008V322.752C293.008 321.451 292.475 320.8 291.408 320.8C290.598 320.8 290.043 321.056 289.744 321.568C289.446 322.08 289.296 322.811 289.296 323.76V328H287.28V319.328H288.832L289.12 320.464H289.232C289.51 320.016 289.888 319.691 290.368 319.488C290.859 319.275 291.376 319.168 291.92 319.168ZM301.002 319.168C302.122 319.168 302.97 319.413 303.546 319.904C304.133 320.395 304.426 321.152 304.426 322.176V328H303.002L302.602 326.8H302.538C302.165 327.269 301.77 327.616 301.354 327.84C300.938 328.053 300.373 328.16 299.658 328.16C298.879 328.16 298.234 327.941 297.722 327.504C297.21 327.067 296.954 326.389 296.954 325.472C296.954 324.576 297.279 323.904 297.93 323.456C298.591 323.008 299.589 322.757 300.922 322.704L302.426 322.656V322.224C302.426 321.68 302.293 321.291 302.026 321.056C301.759 320.811 301.386 320.688 300.906 320.688C300.469 320.688 300.047 320.752 299.642 320.88C299.247 321.008 298.853 321.157 298.458 321.328L297.818 319.92C298.245 319.696 298.73 319.515 299.274 319.376C299.829 319.237 300.405 319.168 301.002 319.168ZM301.37 323.936C300.485 323.968 299.871 324.123 299.53 324.4C299.189 324.667 299.018 325.029 299.018 325.488C299.018 325.904 299.135 326.203 299.37 326.384C299.615 326.555 299.935 326.64 300.33 326.64C300.917 326.64 301.413 326.475 301.818 326.144C302.223 325.803 302.426 325.301 302.426 324.64V323.904L301.37 323.936Z" fill="white"/>
<path d="M154.352 274.144C153.307 274.144 152.496 274.517 151.92 275.264C151.355 276.011 151.072 277.024 151.072 278.304C151.072 279.595 151.339 280.608 151.872 281.344C152.405 282.069 153.227 282.432 154.336 282.432C154.816 282.432 155.285 282.384 155.744 282.288C156.203 282.181 156.683 282.043 157.184 281.872V283.616C156.715 283.808 156.24 283.947 155.76 284.032C155.291 284.117 154.747 284.16 154.128 284.16C152.955 284.16 151.984 283.92 151.216 283.44C150.448 282.949 149.877 282.267 149.504 281.392C149.131 280.507 148.944 279.472 148.944 278.288C148.944 277.136 149.152 276.123 149.568 275.248C149.984 274.363 150.592 273.669 151.392 273.168C152.203 272.667 153.189 272.416 154.352 272.416C154.928 272.416 155.493 272.485 156.048 272.624C156.613 272.752 157.141 272.933 157.632 273.168L156.928 274.848C156.523 274.667 156.101 274.507 155.664 274.368C155.237 274.219 154.8 274.144 154.352 274.144ZM161.468 274.736C161.468 275.077 161.452 275.413 161.42 275.744C161.399 276.064 161.378 276.304 161.356 276.464H161.484C161.762 276.027 162.124 275.701 162.572 275.488C163.02 275.275 163.516 275.168 164.06 275.168C165.042 275.168 165.81 275.419 166.364 275.92C166.919 276.421 167.196 277.232 167.196 278.352V284H165.18V278.752C165.18 277.451 164.647 276.8 163.58 276.8C162.77 276.8 162.215 277.056 161.916 277.568C161.618 278.08 161.468 278.811 161.468 279.76V284H159.452V271.84H161.468V274.736ZM171.734 274.736C171.734 275.077 171.718 275.413 171.686 275.744C171.665 276.064 171.643 276.304 171.622 276.464H171.75C172.027 276.027 172.39 275.701 172.838 275.488C173.286 275.275 173.782 275.168 174.326 275.168C175.307 275.168 176.075 275.419 176.63 275.92C177.185 276.421 177.462 277.232 177.462 278.352V284H175.446V278.752C175.446 277.451 174.913 276.8 173.846 276.8C173.035 276.8 172.481 277.056 172.182 277.568C171.883 278.08 171.734 278.811 171.734 279.76V284H169.718V271.84H171.734V274.736ZM183.44 275.168C184.56 275.168 185.408 275.413 185.984 275.904C186.57 276.395 186.864 277.152 186.864 278.176V284H185.44L185.04 282.8H184.976C184.602 283.269 184.208 283.616 183.792 283.84C183.376 284.053 182.81 284.16 182.096 284.16C181.317 284.16 180.672 283.941 180.16 283.504C179.648 283.067 179.392 282.389 179.392 281.472C179.392 280.576 179.717 279.904 180.368 279.456C181.029 279.008 182.026 278.757 183.36 278.704L184.864 278.656V278.224C184.864 277.68 184.73 277.291 184.464 277.056C184.197 276.811 183.824 276.688 183.344 276.688C182.906 276.688 182.485 276.752 182.08 276.88C181.685 277.008 181.29 277.157 180.896 277.328L180.256 275.92C180.682 275.696 181.168 275.515 181.712 275.376C182.266 275.237 182.842 275.168 183.44 275.168ZM183.808 279.936C182.922 279.968 182.309 280.123 181.968 280.4C181.626 280.667 181.456 281.029 181.456 281.488C181.456 281.904 181.573 282.203 181.808 282.384C182.053 282.555 182.373 282.64 182.768 282.64C183.354 282.64 183.85 282.475 184.256 282.144C184.661 281.803 184.864 281.301 184.864 280.64V279.904L183.808 279.936ZM192.75 282.544C192.995 282.544 193.235 282.523 193.47 282.48C193.715 282.427 193.939 282.368 194.142 282.304V283.808C193.928 283.904 193.651 283.984 193.31 284.048C192.968 284.123 192.611 284.16 192.238 284.16C191.747 284.16 191.299 284.08 190.894 283.92C190.488 283.749 190.168 283.461 189.934 283.056C189.699 282.651 189.582 282.085 189.582 281.36V276.848H188.414V275.968L189.694 275.264L190.334 273.424H191.598V275.328H194.062V276.848H191.598V281.344C191.598 281.749 191.704 282.053 191.918 282.256C192.131 282.448 192.408 282.544 192.75 282.544ZM199.25 282.544C199.495 282.544 199.735 282.523 199.97 282.48C200.215 282.427 200.439 282.368 200.642 282.304V283.808C200.428 283.904 200.151 283.984 199.81 284.048C199.468 284.123 199.111 284.16 198.738 284.16C198.247 284.16 197.799 284.08 197.394 283.92C196.988 283.749 196.668 283.461 196.434 283.056C196.199 282.651 196.082 282.085 196.082 281.36V276.848H194.914V275.968L196.194 275.264L196.834 273.424H198.098V275.328H200.562V276.848H198.098V281.344C198.098 281.749 198.204 282.053 198.418 282.256C198.631 282.448 198.908 282.544 199.25 282.544ZM203.398 271.984C203.707 271.984 203.968 272.064 204.182 272.224C204.406 272.373 204.518 272.645 204.518 273.04C204.518 273.435 204.406 273.712 204.182 273.872C203.968 274.032 203.707 274.112 203.398 274.112C203.088 274.112 202.822 274.032 202.598 273.872C202.384 273.712 202.278 273.435 202.278 273.04C202.278 272.645 202.384 272.373 202.598 272.224C202.822 272.064 203.088 271.984 203.398 271.984ZM204.406 275.328V284H202.39V275.328H204.406ZM212.888 281.488C212.888 282.363 212.573 283.029 211.944 283.488C211.325 283.936 210.434 284.16 209.272 284.16C208.664 284.16 208.141 284.117 207.704 284.032C207.277 283.947 206.861 283.813 206.456 283.632V281.92C206.882 282.123 207.352 282.293 207.864 282.432C208.386 282.571 208.877 282.64 209.336 282.64C209.89 282.64 210.29 282.555 210.536 282.384C210.781 282.213 210.904 281.984 210.904 281.696C210.904 281.525 210.856 281.376 210.76 281.248C210.664 281.109 210.472 280.96 210.184 280.8C209.906 280.64 209.49 280.443 208.936 280.208C208.381 279.995 207.917 279.776 207.544 279.552C207.181 279.317 206.904 279.045 206.712 278.736C206.53 278.427 206.44 278.027 206.44 277.536C206.44 276.757 206.744 276.171 207.352 275.776C207.97 275.371 208.792 275.168 209.816 275.168C210.349 275.168 210.85 275.221 211.32 275.328C211.8 275.435 212.28 275.595 212.76 275.808L212.12 277.296C211.714 277.125 211.32 276.981 210.936 276.864C210.552 276.747 210.157 276.688 209.752 276.688C208.866 276.688 208.424 276.939 208.424 277.44C208.424 277.621 208.477 277.776 208.584 277.904C208.701 278.032 208.898 278.171 209.176 278.32C209.464 278.459 209.869 278.629 210.391 278.832C210.904 279.035 211.346 279.248 211.72 279.472C212.093 279.685 212.381 279.952 212.584 280.272C212.786 280.592 212.888 280.997 212.888 281.488ZM217.739 275.168C218.838 275.168 219.697 275.595 220.315 276.448H220.395L220.587 275.328H222.267V284.064C222.267 285.301 221.915 286.24 221.211 286.88C220.518 287.52 219.478 287.84 218.091 287.84C217.473 287.84 216.902 287.797 216.379 287.712C215.857 287.637 215.361 287.504 214.891 287.312V285.648C215.883 286.096 216.993 286.32 218.219 286.32C218.881 286.32 219.382 286.133 219.723 285.76C220.075 285.397 220.251 284.864 220.251 284.16V283.936C220.251 283.776 220.257 283.589 220.267 283.376C220.278 283.163 220.294 282.992 220.315 282.864H220.251C219.953 283.312 219.585 283.643 219.147 283.856C218.721 284.059 218.235 284.16 217.691 284.16C216.635 284.16 215.809 283.765 215.211 282.976C214.614 282.187 214.315 281.088 214.315 279.68C214.315 278.272 214.614 277.168 215.211 276.368C215.819 275.568 216.662 275.168 217.739 275.168ZM218.267 276.816C217.009 276.816 216.379 277.781 216.379 279.712C216.379 281.611 217.019 282.56 218.299 282.56C219.003 282.56 219.521 282.368 219.851 281.984C220.193 281.589 220.363 280.928 220.363 280V279.696C220.363 278.672 220.193 277.936 219.851 277.488C219.521 277.04 218.993 276.816 218.267 276.816ZM228.299 275.168C229.419 275.168 230.267 275.413 230.843 275.904C231.43 276.395 231.723 277.152 231.723 278.176V284H230.299L229.899 282.8H229.835C229.462 283.269 229.067 283.616 228.651 283.84C228.235 284.053 227.67 284.16 226.955 284.16C226.176 284.16 225.531 283.941 225.019 283.504C224.507 283.067 224.251 282.389 224.251 281.472C224.251 280.576 224.576 279.904 225.227 279.456C225.888 279.008 226.886 278.757 228.219 278.704L229.723 278.656V278.224C229.723 277.68 229.59 277.291 229.323 277.056C229.056 276.811 228.683 276.688 228.203 276.688C227.766 276.688 227.344 276.752 226.939 276.88C226.544 277.008 226.15 277.157 225.755 277.328L225.115 275.92C225.542 275.696 226.027 275.515 226.571 275.376C227.126 275.237 227.702 275.168 228.299 275.168ZM228.667 279.936C227.782 279.968 227.168 280.123 226.827 280.4C226.486 280.667 226.315 281.029 226.315 281.488C226.315 281.904 226.432 282.203 226.667 282.384C226.912 282.555 227.232 282.64 227.627 282.64C228.214 282.64 228.71 282.475 229.115 282.144C229.52 281.803 229.723 281.301 229.723 280.64V279.904L228.667 279.936ZM238.793 275.168C238.932 275.168 239.081 275.173 239.241 275.184C239.412 275.195 239.556 275.216 239.673 275.248L239.497 277.12C239.39 277.099 239.262 277.083 239.113 277.072C238.964 277.051 238.83 277.04 238.713 277.04C238.286 277.04 237.886 277.131 237.513 277.312C237.14 277.483 236.836 277.755 236.601 278.128C236.377 278.491 236.265 278.949 236.265 279.504V284H234.249V275.328H235.801L236.089 276.832H236.185C236.441 276.373 236.793 275.984 237.241 275.664C237.689 275.333 238.206 275.168 238.793 275.168ZM243.296 274.736C243.296 275.077 243.28 275.413 243.248 275.744C243.227 276.064 243.206 276.304 243.184 276.464H243.312C243.59 276.027 243.952 275.701 244.4 275.488C244.848 275.275 245.344 275.168 245.888 275.168C246.87 275.168 247.638 275.419 248.192 275.92C248.747 276.421 249.024 277.232 249.024 278.352V284H247.008V278.752C247.008 277.451 246.475 276.8 245.408 276.8C244.598 276.8 244.043 277.056 243.744 277.568C243.446 278.08 243.296 278.811 243.296 279.76V284H241.28V271.84H243.296V274.736Z" fill="white"/>
<path d="M322.696 283.272C322.696 284.456 322.499 285.491 322.104 286.376C321.72 287.251 321.128 287.933 320.328 288.424C319.528 288.915 318.525 289.16 317.32 289.16C316.104 289.16 315.096 288.915 314.296 288.424C313.507 287.933 312.915 287.245 312.52 286.36C312.136 285.475 311.944 284.44 311.944 283.256C311.944 282.083 312.136 281.059 312.52 280.184C312.915 279.299 313.507 278.616 314.296 278.136C315.096 277.645 316.109 277.4 317.336 277.4C318.541 277.4 319.539 277.645 320.328 278.136C321.128 278.616 321.72 279.299 322.104 280.184C322.499 281.059 322.696 282.088 322.696 283.272ZM314.104 283.272C314.104 284.563 314.36 285.576 314.872 286.312C315.384 287.048 316.2 287.416 317.32 287.416C318.451 287.416 319.267 287.048 319.768 286.312C320.28 285.576 320.536 284.563 320.536 283.272C320.536 281.981 320.285 280.968 319.784 280.232C319.283 279.496 318.467 279.128 317.336 279.128C316.216 279.128 315.395 279.496 314.872 280.232C314.36 280.968 314.104 281.981 314.104 283.272ZM327.801 289.16C326.787 289.16 325.971 288.781 325.353 288.024C324.734 287.267 324.425 286.152 324.425 284.68C324.425 283.187 324.739 282.061 325.369 281.304C325.998 280.547 326.825 280.168 327.849 280.168C328.489 280.168 329.011 280.291 329.417 280.536C329.833 280.781 330.163 281.08 330.409 281.432H330.505C330.473 281.283 330.441 281.053 330.409 280.744C330.377 280.435 330.361 280.147 330.361 279.88V276.84H332.377V289H330.809L330.441 287.864H330.361C330.115 288.227 329.79 288.536 329.385 288.792C328.979 289.037 328.451 289.16 327.801 289.16ZM328.409 287.528C329.155 287.528 329.678 287.315 329.977 286.888C330.286 286.461 330.446 285.816 330.457 284.952V284.696C330.457 283.768 330.307 283.059 330.009 282.568C329.721 282.067 329.177 281.816 328.377 281.816C327.758 281.816 327.283 282.072 326.953 282.584C326.633 283.085 326.473 283.795 326.473 284.712C326.473 285.629 326.638 286.328 326.969 286.808C327.299 287.288 327.779 287.528 328.409 287.528ZM335.96 276.984C336.27 276.984 336.531 277.064 336.744 277.224C336.968 277.373 337.08 277.645 337.08 278.04C337.08 278.435 336.968 278.712 336.744 278.872C336.531 279.032 336.27 279.112 335.96 279.112C335.651 279.112 335.384 279.032 335.16 278.872C334.947 278.712 334.84 278.435 334.84 278.04C334.84 277.645 334.947 277.373 335.16 277.224C335.384 277.064 335.651 276.984 335.96 276.984ZM336.968 280.328V289H334.952V280.328H336.968ZM345.45 286.488C345.45 287.363 345.135 288.029 344.506 288.488C343.887 288.936 342.997 289.16 341.834 289.16C341.226 289.16 340.703 289.117 340.266 289.032C339.839 288.947 339.423 288.813 339.018 288.632V286.92C339.445 287.123 339.914 287.293 340.426 287.432C340.949 287.571 341.439 287.64 341.898 287.64C342.453 287.64 342.853 287.555 343.098 287.384C343.343 287.213 343.466 286.984 343.466 286.696C343.466 286.525 343.418 286.376 343.322 286.248C343.226 286.109 343.034 285.96 342.746 285.8C342.469 285.64 342.053 285.443 341.498 285.208C340.943 284.995 340.479 284.776 340.106 284.552C339.743 284.317 339.466 284.045 339.274 283.736C339.093 283.427 339.002 283.027 339.002 282.536C339.002 281.757 339.306 281.171 339.914 280.776C340.533 280.371 341.354 280.168 342.378 280.168C342.911 280.168 343.413 280.221 343.882 280.328C344.362 280.435 344.842 280.595 345.322 280.808L344.682 282.296C344.277 282.125 343.882 281.981 343.498 281.864C343.114 281.747 342.719 281.688 342.314 281.688C341.429 281.688 340.986 281.939 340.986 282.44C340.986 282.621 341.039 282.776 341.146 282.904C341.263 283.032 341.461 283.171 341.738 283.32C342.026 283.459 342.431 283.629 342.954 283.832C343.466 284.035 343.909 284.248 344.282 284.472C344.655 284.685 344.943 284.952 345.146 285.272C345.349 285.592 345.45 285.997 345.45 286.488ZM349.406 279.736C349.406 280.077 349.39 280.413 349.358 280.744C349.336 281.064 349.315 281.304 349.294 281.464H349.422C349.699 281.027 350.062 280.701 350.51 280.488C350.958 280.275 351.454 280.168 351.998 280.168C352.979 280.168 353.747 280.419 354.302 280.92C354.856 281.421 355.134 282.232 355.134 283.352V289H353.118V283.752C353.118 282.451 352.584 281.8 351.518 281.8C350.707 281.8 350.152 282.056 349.854 282.568C349.555 283.08 349.406 283.811 349.406 284.76V289H347.39V276.84H349.406V279.736ZM361.111 280.168C362.231 280.168 363.079 280.413 363.655 280.904C364.242 281.395 364.535 282.152 364.535 283.176V289H363.111L362.711 287.8H362.647C362.274 288.269 361.879 288.616 361.463 288.84C361.047 289.053 360.482 289.16 359.767 289.16C358.989 289.16 358.343 288.941 357.831 288.504C357.319 288.067 357.063 287.389 357.063 286.472C357.063 285.576 357.389 284.904 358.039 284.456C358.701 284.008 359.698 283.757 361.031 283.704L362.535 283.656V283.224C362.535 282.68 362.402 282.291 362.135 282.056C361.869 281.811 361.495 281.688 361.015 281.688C360.578 281.688 360.157 281.752 359.751 281.88C359.357 282.008 358.962 282.157 358.567 282.328L357.927 280.92C358.354 280.696 358.839 280.515 359.383 280.376C359.938 280.237 360.514 280.168 361.111 280.168ZM361.479 284.936C360.594 284.968 359.981 285.123 359.639 285.4C359.298 285.667 359.127 286.029 359.127 286.488C359.127 286.904 359.245 287.203 359.479 287.384C359.725 287.555 360.045 287.64 360.439 287.64C361.026 287.64 361.522 287.475 361.927 287.144C362.333 286.803 362.535 286.301 362.535 285.64V284.904L361.479 284.936Z" fill="white"/>
<path d="M60.352 376.604H58L54.608 371.548L53.536 372.396V376.604H51.488V365.18H53.536V370.556C53.7493 370.289 53.968 370.017 54.192 369.74C54.416 369.462 54.64 369.185 54.864 368.908L57.952 365.18H60.272L56.08 370.204L60.352 376.604ZM65.1114 367.772C66.2314 367.772 67.0794 368.017 67.6554 368.508C68.242 368.998 68.5354 369.756 68.5354 370.78V376.604H67.1114L66.7114 375.404H66.6474C66.274 375.873 65.8794 376.22 65.4634 376.444C65.0474 376.657 64.482 376.764 63.7674 376.764C62.9887 376.764 62.3434 376.545 61.8314 376.108C61.3194 375.67 61.0634 374.993 61.0634 374.076C61.0634 373.18 61.3887 372.508 62.0394 372.06C62.7007 371.612 63.698 371.361 65.0314 371.308L66.5354 371.26V370.828C66.5354 370.284 66.402 369.894 66.1354 369.66C65.8687 369.414 65.4954 369.292 65.0154 369.292C64.578 369.292 64.1567 369.356 63.7514 369.484C63.3567 369.612 62.962 369.761 62.5674 369.932L61.9274 368.524C62.354 368.3 62.8394 368.118 63.3834 367.98C63.938 367.841 64.514 367.772 65.1114 367.772ZM65.4794 372.54C64.594 372.572 63.9807 372.726 63.6394 373.004C63.298 373.27 63.1274 373.633 63.1274 374.092C63.1274 374.508 63.2447 374.806 63.4794 374.988C63.7247 375.158 64.0447 375.244 64.4394 375.244C65.026 375.244 65.522 375.078 65.9274 374.748C66.3327 374.406 66.5354 373.905 66.5354 373.244V372.508L65.4794 372.54ZM75.6056 367.772C75.7443 367.772 75.8936 367.777 76.0536 367.788C76.2243 367.798 76.3683 367.82 76.4856 367.852L76.3096 369.724C76.203 369.702 76.075 369.686 75.9256 369.676C75.7763 369.654 75.643 369.644 75.5256 369.644C75.099 369.644 74.699 369.734 74.3256 369.916C73.9523 370.086 73.6483 370.358 73.4136 370.732C73.1896 371.094 73.0776 371.553 73.0776 372.108V376.604H71.0616V367.932H72.6136L72.9016 369.436H72.9976C73.2536 368.977 73.6056 368.588 74.0536 368.268C74.5016 367.937 75.019 367.772 75.6056 367.772ZM82.7329 367.772C83.7035 367.772 84.4609 368.022 85.0049 368.524C85.5595 369.025 85.8369 369.836 85.8369 370.956V376.604H83.8209V371.356C83.8209 370.054 83.2875 369.404 82.2209 369.404C81.4102 369.404 80.8555 369.66 80.5569 370.172C80.2582 370.684 80.1089 371.414 80.1089 372.364V376.604H78.0929V367.932H79.6449L79.9329 369.068H80.0449C80.3222 368.62 80.7009 368.294 81.1809 368.092C81.6715 367.878 82.1889 367.772 82.7329 367.772ZM91.8145 367.772C92.9345 367.772 93.7825 368.017 94.3585 368.508C94.9452 368.998 95.2385 369.756 95.2385 370.78V376.604H93.8145L93.4145 375.404H93.3505C92.9772 375.873 92.5825 376.22 92.1665 376.444C91.7505 376.657 91.1852 376.764 90.4705 376.764C89.6918 376.764 89.0465 376.545 88.5345 376.108C88.0225 375.67 87.7665 374.993 87.7665 374.076C87.7665 373.18 88.0918 372.508 88.7425 372.06C89.4038 371.612 90.4012 371.361 91.7345 371.308L93.2385 371.26V370.828C93.2385 370.284 93.1052 369.894 92.8385 369.66C92.5718 369.414 92.1985 369.292 91.7185 369.292C91.2812 369.292 90.8598 369.356 90.4545 369.484C90.0598 369.612 89.6652 369.761 89.2705 369.932L88.6305 368.524C89.0572 368.3 89.5425 368.118 90.0865 367.98C90.6412 367.841 91.2172 367.772 91.8145 367.772ZM92.1825 372.54C91.2972 372.572 90.6838 372.726 90.3425 373.004C90.0012 373.27 89.8305 373.633 89.8305 374.092C89.8305 374.508 89.9478 374.806 90.1825 374.988C90.4278 375.158 90.7478 375.244 91.1425 375.244C91.7292 375.244 92.2252 375.078 92.6305 374.748C93.0358 374.406 93.2385 373.905 93.2385 373.244V372.508L92.1825 372.54ZM101.125 375.148C101.37 375.148 101.61 375.126 101.845 375.084C102.09 375.03 102.314 374.972 102.517 374.908V376.412C102.303 376.508 102.026 376.588 101.685 376.652C101.343 376.726 100.986 376.764 100.613 376.764C100.122 376.764 99.6741 376.684 99.2688 376.524C98.8634 376.353 98.5434 376.065 98.3088 375.66C98.0741 375.254 97.9568 374.689 97.9568 373.964V369.452H96.7888V368.572L98.0688 367.868L98.7088 366.028H99.9728V367.932H102.437V369.452H99.9728V373.948C99.9728 374.353 100.079 374.657 100.293 374.86C100.506 375.052 100.783 375.148 101.125 375.148ZM107.721 367.772C108.841 367.772 109.689 368.017 110.265 368.508C110.851 368.998 111.145 369.756 111.145 370.78V376.604H109.721L109.321 375.404H109.257C108.883 375.873 108.489 376.22 108.073 376.444C107.657 376.657 107.091 376.764 106.377 376.764C105.598 376.764 104.953 376.545 104.441 376.108C103.929 375.67 103.673 374.993 103.673 374.076C103.673 373.18 103.998 372.508 104.649 372.06C105.31 371.612 106.307 371.361 107.641 371.308L109.145 371.26V370.828C109.145 370.284 109.011 369.894 108.745 369.66C108.478 369.414 108.105 369.292 107.625 369.292C107.187 369.292 106.766 369.356 106.361 369.484C105.966 369.612 105.571 369.761 105.177 369.932L104.537 368.524C104.963 368.3 105.449 368.118 105.993 367.98C106.547 367.841 107.123 367.772 107.721 367.772ZM108.089 372.54C107.203 372.572 106.59 372.726 106.249 373.004C105.907 373.27 105.737 373.633 105.737 374.092C105.737 374.508 105.854 374.806 106.089 374.988C106.334 375.158 106.654 375.244 107.049 375.244C107.635 375.244 108.131 375.078 108.537 374.748C108.942 374.406 109.145 373.905 109.145 373.244V372.508L108.089 372.54ZM115.671 370.22C115.671 370.497 115.66 370.79 115.639 371.1C115.618 371.409 115.596 371.702 115.575 371.98H115.623C115.751 371.788 115.911 371.569 116.103 371.324C116.295 371.078 116.476 370.86 116.647 370.668L119.207 367.932H121.495L118.023 371.676L121.719 376.604H119.367L116.679 372.892L115.671 373.724V376.604H113.671V364.444H115.671V370.22ZM126.533 367.772C127.653 367.772 128.501 368.017 129.077 368.508C129.664 368.998 129.957 369.756 129.957 370.78V376.604H128.533L128.133 375.404H128.069C127.696 375.873 127.301 376.22 126.885 376.444C126.469 376.657 125.904 376.764 125.189 376.764C124.411 376.764 123.765 376.545 123.253 376.108C122.741 375.67 122.485 374.993 122.485 374.076C122.485 373.18 122.811 372.508 123.461 372.06C124.123 371.612 125.12 371.361 126.453 371.308L127.957 371.26V370.828C127.957 370.284 127.824 369.894 127.557 369.66C127.291 369.414 126.917 369.292 126.437 369.292C126 369.292 125.579 369.356 125.173 369.484C124.779 369.612 124.384 369.761 123.989 369.932L123.349 368.524C123.776 368.3 124.261 368.118 124.805 367.98C125.36 367.841 125.936 367.772 126.533 367.772ZM126.901 372.54C126.016 372.572 125.403 372.726 125.061 373.004C124.72 373.27 124.549 373.633 124.549 374.092C124.549 374.508 124.667 374.806 124.901 374.988C125.147 375.158 125.467 375.244 125.861 375.244C126.448 375.244 126.944 375.078 127.349 374.748C127.755 374.406 127.957 373.905 127.957 373.244V372.508L126.901 372.54Z" fill="white"/>
<path d="M16.4 306.604L13.264 297.244H13.2C13.2107 297.457 13.2267 297.761 13.248 298.156C13.2693 298.54 13.2853 298.961 13.296 299.42C13.3173 299.868 13.328 300.289 13.328 300.684V306.604H11.488V295.18H14.336L17.344 304.156H17.408L20.544 295.18H23.392V306.604H21.44V300.588C21.44 300.225 21.4453 299.83 21.456 299.404C21.4773 298.966 21.4933 298.556 21.504 298.172C21.5253 297.788 21.5413 297.484 21.552 297.26H21.488L18.224 306.604H16.4ZM29.6114 297.772C30.7314 297.772 31.5794 298.017 32.1554 298.508C32.742 298.998 33.0354 299.756 33.0354 300.78V306.604H31.6114L31.2114 305.404H31.1474C30.774 305.873 30.3794 306.22 29.9634 306.444C29.5474 306.657 28.982 306.764 28.2674 306.764C27.4887 306.764 26.8434 306.545 26.3314 306.108C25.8194 305.67 25.5634 304.993 25.5634 304.076C25.5634 303.18 25.8887 302.508 26.5394 302.06C27.2007 301.612 28.198 301.361 29.5314 301.308L31.0354 301.26V300.828C31.0354 300.284 30.902 299.894 30.6354 299.66C30.3687 299.414 29.9954 299.292 29.5154 299.292C29.078 299.292 28.6567 299.356 28.2514 299.484C27.8567 299.612 27.462 299.761 27.0674 299.932L26.4274 298.524C26.854 298.3 27.3394 298.118 27.8834 297.98C28.438 297.841 29.014 297.772 29.6114 297.772ZM29.9794 302.54C29.094 302.572 28.4807 302.726 28.1394 303.004C27.798 303.27 27.6274 303.633 27.6274 304.092C27.6274 304.508 27.7447 304.806 27.9794 304.988C28.2247 305.158 28.5447 305.244 28.9394 305.244C29.526 305.244 30.022 305.078 30.4274 304.748C30.8327 304.406 31.0354 303.905 31.0354 303.244V302.508L29.9794 302.54ZM37.5776 297.34C37.5776 297.681 37.5616 298.017 37.5296 298.348C37.5083 298.668 37.487 298.908 37.4656 299.068H37.5936C37.871 298.63 38.2336 298.305 38.6816 298.092C39.1296 297.878 39.6256 297.772 40.1696 297.772C41.151 297.772 41.919 298.022 42.4736 298.524C43.0283 299.025 43.3056 299.836 43.3056 300.956V306.604H41.2896V301.356C41.2896 300.054 40.7563 299.404 39.6896 299.404C38.879 299.404 38.3243 299.66 38.0256 300.172C37.727 300.684 37.5776 301.414 37.5776 302.364V306.604H35.5616V294.444H37.5776V297.34ZM49.2833 297.772C50.4033 297.772 51.2513 298.017 51.8273 298.508C52.4139 298.998 52.7073 299.756 52.7073 300.78V306.604H51.2833L50.8833 305.404H50.8193C50.4459 305.873 50.0513 306.22 49.6353 306.444C49.2193 306.657 48.6539 306.764 47.9393 306.764C47.1606 306.764 46.5153 306.545 46.0033 306.108C45.4913 305.67 45.2353 304.993 45.2353 304.076C45.2353 303.18 45.5606 302.508 46.2113 302.06C46.8726 301.612 47.8699 301.361 49.2033 301.308L50.7073 301.26V300.828C50.7073 300.284 50.5739 299.894 50.3073 299.66C50.0406 299.414 49.6673 299.292 49.1873 299.292C48.7499 299.292 48.3286 299.356 47.9233 299.484C47.5286 299.612 47.1339 299.761 46.7393 299.932L46.0993 298.524C46.5259 298.3 47.0113 298.118 47.5553 297.98C48.1099 297.841 48.6859 297.772 49.2833 297.772ZM49.6513 302.54C48.7659 302.572 48.1526 302.726 47.8113 303.004C47.4699 303.27 47.2993 303.633 47.2993 304.092C47.2993 304.508 47.4166 304.806 47.6513 304.988C47.8966 305.158 48.2166 305.244 48.6113 305.244C49.1979 305.244 49.6939 305.078 50.0993 304.748C50.5046 304.406 50.7073 303.905 50.7073 303.244V302.508L49.6513 302.54ZM59.7775 297.772C59.9162 297.772 60.0655 297.777 60.2255 297.788C60.3962 297.798 60.5402 297.82 60.6575 297.852L60.4815 299.724C60.3748 299.702 60.2468 299.686 60.0975 299.676C59.9482 299.654 59.8148 299.644 59.6975 299.644C59.2708 299.644 58.8708 299.734 58.4975 299.916C58.1242 300.086 57.8202 300.358 57.5855 300.732C57.3615 301.094 57.2495 301.553 57.2495 302.108V306.604H55.2335V297.932H56.7855L57.0735 299.436H57.1695C57.4255 298.977 57.7775 298.588 58.2255 298.268C58.6735 297.937 59.1908 297.772 59.7775 297.772ZM65.4083 297.772C66.5283 297.772 67.3763 298.017 67.9523 298.508C68.5389 298.998 68.8323 299.756 68.8323 300.78V306.604H67.4083L67.0083 305.404H66.9443C66.5709 305.873 66.1763 306.22 65.7603 306.444C65.3443 306.657 64.7789 306.764 64.0643 306.764C63.2856 306.764 62.6403 306.545 62.1283 306.108C61.6163 305.67 61.3603 304.993 61.3603 304.076C61.3603 303.18 61.6856 302.508 62.3363 302.06C62.9976 301.612 63.9949 301.361 65.3283 301.308L66.8323 301.26V300.828C66.8323 300.284 66.6989 299.894 66.4323 299.66C66.1656 299.414 65.7923 299.292 65.3123 299.292C64.8749 299.292 64.4536 299.356 64.0483 299.484C63.6536 299.612 63.2589 299.761 62.8643 299.932L62.2243 298.524C62.6509 298.3 63.1363 298.118 63.6803 297.98C64.2349 297.841 64.8109 297.772 65.4083 297.772ZM65.7763 302.54C64.8909 302.572 64.2776 302.726 63.9363 303.004C63.5949 303.27 63.4243 303.633 63.4243 304.092C63.4243 304.508 63.5416 304.806 63.7763 304.988C64.0216 305.158 64.3416 305.244 64.7363 305.244C65.3229 305.244 65.8189 305.078 66.2243 304.748C66.6296 304.406 66.8323 303.905 66.8323 303.244V302.508L65.7763 302.54ZM77.2625 304.092C77.2625 304.966 76.9478 305.633 76.3185 306.092C75.6998 306.54 74.8092 306.764 73.6465 306.764C73.0385 306.764 72.5158 306.721 72.0785 306.636C71.6518 306.55 71.2358 306.417 70.8305 306.236V304.524C71.2572 304.726 71.7265 304.897 72.2385 305.036C72.7612 305.174 73.2518 305.244 73.7105 305.244C74.2652 305.244 74.6652 305.158 74.9105 304.988C75.1558 304.817 75.2785 304.588 75.2785 304.3C75.2785 304.129 75.2305 303.98 75.1345 303.852C75.0385 303.713 74.8465 303.564 74.5585 303.404C74.2812 303.244 73.8652 303.046 73.3105 302.812C72.7558 302.598 72.2918 302.38 71.9185 302.156C71.5558 301.921 71.2785 301.649 71.0865 301.34C70.9052 301.03 70.8145 300.63 70.8145 300.14C70.8145 299.361 71.1185 298.774 71.7265 298.38C72.3452 297.974 73.1665 297.772 74.1905 297.772C74.7238 297.772 75.2252 297.825 75.6945 297.932C76.1745 298.038 76.6545 298.198 77.1345 298.412L76.4945 299.9C76.0892 299.729 75.6945 299.585 75.3105 299.468C74.9265 299.35 74.5318 299.292 74.1265 299.292C73.2412 299.292 72.7985 299.542 72.7985 300.044C72.7985 300.225 72.8518 300.38 72.9585 300.508C73.0758 300.636 73.2732 300.774 73.5505 300.924C73.8385 301.062 74.2438 301.233 74.7665 301.436C75.2785 301.638 75.7212 301.852 76.0945 302.076C76.4678 302.289 76.7558 302.556 76.9585 302.876C77.1612 303.196 77.2625 303.601 77.2625 304.092ZM81.2183 297.34C81.2183 297.681 81.2023 298.017 81.1703 298.348C81.1489 298.668 81.1276 298.908 81.1063 299.068H81.2343C81.5116 298.63 81.8743 298.305 82.3223 298.092C82.7703 297.878 83.2663 297.772 83.8103 297.772C84.7916 297.772 85.5596 298.022 86.1143 298.524C86.6689 299.025 86.9462 299.836 86.9462 300.956V306.604H84.9303V301.356C84.9303 300.054 84.3969 299.404 83.3303 299.404C82.5196 299.404 81.9649 299.66 81.6663 300.172C81.3676 300.684 81.2183 301.414 81.2183 302.364V306.604H79.2023V294.444H81.2183V297.34ZM92.8279 305.148C93.0732 305.148 93.3132 305.126 93.5479 305.084C93.7932 305.03 94.0172 304.972 94.2199 304.908V306.412C94.0065 306.508 93.7292 306.588 93.3879 306.652C93.0465 306.726 92.6892 306.764 92.3159 306.764C91.8252 306.764 91.3772 306.684 90.9719 306.524C90.5665 306.353 90.2465 306.065 90.0119 305.66C89.7772 305.254 89.6599 304.689 89.6599 303.964V299.452H88.4919V298.572L89.7719 297.868L90.4119 296.028H91.6759V297.932H94.1399V299.452H91.6759V303.948C91.6759 304.353 91.7825 304.657 91.9959 304.86C92.2092 305.052 92.4865 305.148 92.8279 305.148ZM100.512 297.772C100.651 297.772 100.8 297.777 100.96 297.788C101.131 297.798 101.275 297.82 101.392 297.852L101.216 299.724C101.109 299.702 100.981 299.686 100.832 299.676C100.683 299.654 100.549 299.644 100.432 299.644C100.005 299.644 99.6052 299.734 99.2319 299.916C98.8585 300.086 98.5545 300.358 98.3199 300.732C98.0959 301.094 97.9839 301.553 97.9839 302.108V306.604H95.9679V297.932H97.5199L97.8079 299.436H97.9039C98.1599 298.977 98.5119 298.588 98.9599 298.268C99.4079 297.937 99.9252 297.772 100.512 297.772ZM106.143 297.772C107.263 297.772 108.111 298.017 108.687 298.508C109.273 298.998 109.567 299.756 109.567 300.78V306.604H108.143L107.743 305.404H107.679C107.305 305.873 106.911 306.22 106.495 306.444C106.079 306.657 105.513 306.764 104.799 306.764C104.02 306.764 103.375 306.545 102.863 306.108C102.351 305.67 102.095 304.993 102.095 304.076C102.095 303.18 102.42 302.508 103.071 302.06C103.732 301.612 104.729 301.361 106.063 301.308L107.567 301.26V300.828C107.567 300.284 107.433 299.894 107.167 299.66C106.9 299.414 106.527 299.292 106.047 299.292C105.609 299.292 105.188 299.356 104.783 299.484C104.388 299.612 103.993 299.761 103.599 299.932L102.959 298.524C103.385 298.3 103.871 298.118 104.415 297.98C104.969 297.841 105.545 297.772 106.143 297.772ZM106.511 302.54C105.625 302.572 105.012 302.726 104.671 303.004C104.329 303.27 104.159 303.633 104.159 304.092C104.159 304.508 104.276 304.806 104.511 304.988C104.756 305.158 105.076 305.244 105.471 305.244C106.057 305.244 106.553 305.078 106.959 304.748C107.364 304.406 107.567 303.905 107.567 303.244V302.508L106.511 302.54Z" fill="white"/>
<path d="M16.048 236.728H20.368V242.536C19.76 242.728 19.136 242.883 18.496 243C17.856 243.107 17.1307 243.16 16.32 243.16C14.592 243.16 13.264 242.648 12.336 241.624C11.408 240.6 10.944 239.149 10.944 237.272C10.944 236.088 11.1733 235.059 11.632 234.184C12.1013 233.299 12.7787 232.616 13.664 232.136C14.5493 231.656 15.6267 231.416 16.896 231.416C17.5147 231.416 18.112 231.48 18.688 231.608C19.2747 231.736 19.808 231.901 20.288 232.104L19.584 233.784C19.2107 233.613 18.7893 233.464 18.32 233.336C17.8507 233.208 17.36 233.144 16.848 233.144C16.0693 233.144 15.3973 233.315 14.832 233.656C14.2667 233.997 13.8293 234.483 13.52 235.112C13.2213 235.731 13.072 236.461 13.072 237.304C13.072 238.115 13.1893 238.829 13.424 239.448C13.6587 240.067 14.032 240.552 14.544 240.904C15.056 241.256 15.7227 241.432 16.544 241.432C16.9493 241.432 17.2907 241.411 17.568 241.368C17.8453 241.325 18.1067 241.277 18.352 241.224V238.472H16.048V236.728ZM30.6014 234.328V243H29.0174L28.7454 241.88H28.6494C28.3614 242.328 27.972 242.653 27.4814 242.856C27.0014 243.059 26.4894 243.16 25.9454 243.16C24.9747 243.16 24.212 242.909 23.6574 242.408C23.1134 241.907 22.8414 241.101 22.8414 239.992V234.328H24.8574V239.592C24.8574 240.883 25.3907 241.528 26.4574 241.528C27.268 241.528 27.8227 241.277 28.1214 240.776C28.4307 240.264 28.5854 239.528 28.5854 238.568V234.328H30.6014ZM33.059 232.04C33.059 231.645 33.1657 231.373 33.379 231.224C33.603 231.064 33.8697 230.984 34.179 230.984C34.4883 230.984 34.7497 231.064 34.963 231.224C35.187 231.373 35.299 231.645 35.299 232.04C35.299 232.435 35.187 232.712 34.963 232.872C34.7497 233.032 34.4883 233.112 34.179 233.112C33.8697 233.112 33.603 233.032 33.379 232.872C33.1657 232.712 33.059 232.435 33.059 232.04ZM32.339 246.84C32.0723 246.84 31.811 246.819 31.555 246.776C31.299 246.744 31.0803 246.701 30.899 246.648V245.048C31.0803 245.101 31.2563 245.139 31.427 245.16C31.5977 245.192 31.7897 245.208 32.003 245.208C32.3337 245.208 32.611 245.117 32.835 244.936C33.059 244.755 33.171 244.397 33.171 243.864V234.328H35.187V244.072C35.187 244.872 34.9683 245.533 34.531 246.056C34.0937 246.579 33.363 246.84 32.339 246.84ZM41.2208 234.168C42.3408 234.168 43.1888 234.413 43.7648 234.904C44.3514 235.395 44.6448 236.152 44.6448 237.176V243H43.2208L42.8208 241.8H42.7568C42.3834 242.269 41.9888 242.616 41.5728 242.84C41.1568 243.053 40.5914 243.16 39.8768 243.16C39.0981 243.16 38.4528 242.941 37.9408 242.504C37.4288 242.067 37.1728 241.389 37.1728 240.472C37.1728 239.576 37.4981 238.904 38.1488 238.456C38.8101 238.008 39.8074 237.757 41.1408 237.704L42.6448 237.656V237.224C42.6448 236.68 42.5114 236.291 42.2448 236.056C41.9781 235.811 41.6048 235.688 41.1248 235.688C40.6874 235.688 40.2661 235.752 39.8608 235.88C39.4661 236.008 39.0714 236.157 38.6768 236.328L38.0368 234.92C38.4634 234.696 38.9488 234.515 39.4928 234.376C40.0474 234.237 40.6234 234.168 41.2208 234.168ZM41.5888 238.936C40.7034 238.968 40.0901 239.123 39.7488 239.4C39.4074 239.667 39.2368 240.029 39.2368 240.488C39.2368 240.904 39.3541 241.203 39.5888 241.384C39.8341 241.555 40.1541 241.64 40.5488 241.64C41.1354 241.64 41.6314 241.475 42.0368 241.144C42.4421 240.803 42.6448 240.301 42.6448 239.64V238.904L41.5888 238.936ZM51.715 234.168C51.8537 234.168 52.003 234.173 52.163 234.184C52.3337 234.195 52.4777 234.216 52.595 234.248L52.419 236.12C52.3123 236.099 52.1843 236.083 52.035 236.072C51.8857 236.051 51.7523 236.04 51.635 236.04C51.2083 236.04 50.8083 236.131 50.435 236.312C50.0617 236.483 49.7577 236.755 49.523 237.128C49.299 237.491 49.187 237.949 49.187 238.504V243H47.171V234.328H48.723L49.011 235.832H49.107C49.363 235.373 49.715 234.984 50.163 234.664C50.611 234.333 51.1283 234.168 51.715 234.168ZM57.3458 234.168C58.4658 234.168 59.3138 234.413 59.8898 234.904C60.4764 235.395 60.7698 236.152 60.7698 237.176V243H59.3458L58.9458 241.8H58.8818C58.5084 242.269 58.1138 242.616 57.6978 242.84C57.2818 243.053 56.7164 243.16 56.0018 243.16C55.2231 243.16 54.5778 242.941 54.0658 242.504C53.5538 242.067 53.2978 241.389 53.2978 240.472C53.2978 239.576 53.6231 238.904 54.2738 238.456C54.9351 238.008 55.9324 237.757 57.2658 237.704L58.7698 237.656V237.224C58.7698 236.68 58.6364 236.291 58.3698 236.056C58.1031 235.811 57.7298 235.688 57.2498 235.688C56.8124 235.688 56.3911 235.752 55.9858 235.88C55.5911 236.008 55.1964 236.157 54.8018 236.328L54.1618 234.92C54.5884 234.696 55.0738 234.515 55.6178 234.376C56.1724 234.237 56.7484 234.168 57.3458 234.168ZM57.7138 238.936C56.8284 238.968 56.2151 239.123 55.8738 239.4C55.5324 239.667 55.3618 240.029 55.3618 240.488C55.3618 240.904 55.4791 241.203 55.7138 241.384C55.9591 241.555 56.2791 241.64 56.6738 241.64C57.2604 241.64 57.7564 241.475 58.1618 241.144C58.5671 240.803 58.7698 240.301 58.7698 239.64V238.904L57.7138 238.936ZM66.656 241.544C66.9013 241.544 67.1413 241.523 67.376 241.48C67.6213 241.427 67.8453 241.368 68.048 241.304V242.808C67.8347 242.904 67.5573 242.984 67.216 243.048C66.8747 243.123 66.5173 243.16 66.144 243.16C65.6533 243.16 65.2053 243.08 64.8 242.92C64.3947 242.749 64.0747 242.461 63.84 242.056C63.6053 241.651 63.488 241.085 63.488 240.36V235.848H62.32V234.968L63.6 234.264L64.24 232.424H65.504V234.328H67.968V235.848H65.504V240.344C65.504 240.749 65.6107 241.053 65.824 241.256C66.0373 241.448 66.3147 241.544 66.656 241.544Z" fill="white"/>
<path d="M10.736 154.576C12.24 154.576 13.3493 154.853 14.064 155.408C14.7893 155.963 15.152 156.805 15.152 157.936C15.152 158.491 15.0453 158.965 14.832 159.36C14.6293 159.755 14.3627 160.085 14.032 160.352C13.7013 160.608 13.344 160.816 12.96 160.976L16.24 166H13.936L11.2 161.488H9.536V166H7.488V154.576H10.736ZM10.608 156.288H9.536V159.808H10.672C11.5147 159.808 12.1227 159.659 12.496 159.36C12.88 159.051 13.072 158.597 13.072 158C13.072 157.381 12.8693 156.944 12.464 156.688C12.0693 156.421 11.4507 156.288 10.608 156.288ZM21.0958 157.168C22.2158 157.168 23.0638 157.413 23.6398 157.904C24.2264 158.395 24.5198 159.152 24.5198 160.176V166H23.0958L22.6958 164.8H22.6318C22.2584 165.269 21.8638 165.616 21.4478 165.84C21.0318 166.053 20.4664 166.16 19.7518 166.16C18.9731 166.16 18.3278 165.941 17.8158 165.504C17.3038 165.067 17.0478 164.389 17.0478 163.472C17.0478 162.576 17.3731 161.904 18.0238 161.456C18.6851 161.008 19.6824 160.757 21.0158 160.704L22.5198 160.656V160.224C22.5198 159.68 22.3864 159.291 22.1198 159.056C21.8531 158.811 21.4798 158.688 20.9998 158.688C20.5624 158.688 20.1411 158.752 19.7358 158.88C19.3411 159.008 18.9464 159.157 18.5518 159.328L17.9118 157.92C18.3384 157.696 18.8238 157.515 19.3678 157.376C19.9224 157.237 20.4984 157.168 21.0958 157.168ZM21.4638 161.936C20.5784 161.968 19.9651 162.123 19.6238 162.4C19.2824 162.667 19.1118 163.029 19.1118 163.488C19.1118 163.904 19.2291 164.203 19.4638 164.384C19.7091 164.555 20.0291 164.64 20.4238 164.64C21.0104 164.64 21.5064 164.475 21.9118 164.144C22.3171 163.803 22.5198 163.301 22.5198 162.64V161.904L21.4638 161.936ZM26.934 155.04C26.934 154.645 27.0407 154.373 27.254 154.224C27.478 154.064 27.7447 153.984 28.054 153.984C28.3633 153.984 28.6247 154.064 28.838 154.224C29.062 154.373 29.174 154.645 29.174 155.04C29.174 155.435 29.062 155.712 28.838 155.872C28.6247 156.032 28.3633 156.112 28.054 156.112C27.7447 156.112 27.478 156.032 27.254 155.872C27.0407 155.712 26.934 155.435 26.934 155.04ZM26.214 169.84C25.9473 169.84 25.686 169.819 25.43 169.776C25.174 169.744 24.9553 169.701 24.774 169.648V168.048C24.9553 168.101 25.1313 168.139 25.302 168.16C25.4727 168.192 25.6647 168.208 25.878 168.208C26.2087 168.208 26.486 168.117 26.71 167.936C26.934 167.755 27.046 167.397 27.046 166.864V157.328H29.062V167.072C29.062 167.872 28.8433 168.533 28.406 169.056C27.9687 169.579 27.238 169.84 26.214 169.84ZM35.0958 157.168C36.2158 157.168 37.0638 157.413 37.6398 157.904C38.2264 158.395 38.5198 159.152 38.5198 160.176V166H37.0958L36.6958 164.8H36.6318C36.2584 165.269 35.8638 165.616 35.4478 165.84C35.0318 166.053 34.4664 166.16 33.7518 166.16C32.9731 166.16 32.3278 165.941 31.8158 165.504C31.3038 165.067 31.0478 164.389 31.0478 163.472C31.0478 162.576 31.3731 161.904 32.0238 161.456C32.6851 161.008 33.6824 160.757 35.0158 160.704L36.5198 160.656V160.224C36.5198 159.68 36.3864 159.291 36.1198 159.056C35.8531 158.811 35.4798 158.688 34.9998 158.688C34.5624 158.688 34.1411 158.752 33.7358 158.88C33.3411 159.008 32.9464 159.157 32.5518 159.328L31.9118 157.92C32.3384 157.696 32.8238 157.515 33.3678 157.376C33.9224 157.237 34.4984 157.168 35.0958 157.168ZM35.4638 161.936C34.5784 161.968 33.9651 162.123 33.6238 162.4C33.2824 162.667 33.1118 163.029 33.1118 163.488C33.1118 163.904 33.2291 164.203 33.4638 164.384C33.7091 164.555 34.0291 164.64 34.4238 164.64C35.0104 164.64 35.5064 164.475 35.9118 164.144C36.3171 163.803 36.5198 163.301 36.5198 162.64V161.904L35.4638 161.936ZM46.95 163.488C46.95 164.363 46.6353 165.029 46.006 165.488C45.3873 165.936 44.4967 166.16 43.334 166.16C42.726 166.16 42.2033 166.117 41.766 166.032C41.3393 165.947 40.9233 165.813 40.518 165.632V163.92C40.9447 164.123 41.414 164.293 41.926 164.432C42.4487 164.571 42.9393 164.64 43.398 164.64C43.9527 164.64 44.3527 164.555 44.598 164.384C44.8433 164.213 44.966 163.984 44.966 163.696C44.966 163.525 44.918 163.376 44.822 163.248C44.726 163.109 44.534 162.96 44.246 162.8C43.9687 162.64 43.5527 162.443 42.998 162.208C42.4433 161.995 41.9793 161.776 41.606 161.552C41.2433 161.317 40.966 161.045 40.774 160.736C40.5927 160.427 40.502 160.027 40.502 159.536C40.502 158.757 40.806 158.171 41.414 157.776C42.0327 157.371 42.854 157.168 43.878 157.168C44.4113 157.168 44.9127 157.221 45.382 157.328C45.862 157.435 46.342 157.595 46.822 157.808L46.182 159.296C45.7767 159.125 45.382 158.981 44.998 158.864C44.614 158.747 44.2193 158.688 43.814 158.688C42.9287 158.688 42.486 158.939 42.486 159.44C42.486 159.621 42.5393 159.776 42.646 159.904C42.7633 160.032 42.9607 160.171 43.238 160.32C43.526 160.459 43.9313 160.629 44.454 160.832C44.966 161.035 45.4087 161.248 45.782 161.472C46.1553 161.685 46.4433 161.952 46.646 162.272C46.8487 162.592 46.95 162.997 46.95 163.488ZM52.2498 164.544C52.4951 164.544 52.7351 164.523 52.9698 164.48C53.2151 164.427 53.4391 164.368 53.6418 164.304V165.808C53.4284 165.904 53.1511 165.984 52.8098 166.048C52.4684 166.123 52.1111 166.16 51.7378 166.16C51.2471 166.16 50.7991 166.08 50.3938 165.92C49.9884 165.749 49.6684 165.461 49.4338 165.056C49.1991 164.651 49.0818 164.085 49.0818 163.36V158.848H47.9138V157.968L49.1938 157.264L49.8338 155.424H51.0978V157.328H53.5618V158.848H51.0978V163.344C51.0978 163.749 51.2044 164.053 51.4178 164.256C51.6311 164.448 51.9084 164.544 52.2498 164.544ZM57.4058 156.736C57.4058 157.077 57.3898 157.413 57.3578 157.744C57.3364 158.064 57.3151 158.304 57.2938 158.464H57.4218C57.6991 158.027 58.0618 157.701 58.5098 157.488C58.9578 157.275 59.4538 157.168 59.9978 157.168C60.9791 157.168 61.7471 157.419 62.3018 157.92C62.8564 158.421 63.1337 159.232 63.1337 160.352V166H61.1178V160.752C61.1178 159.451 60.5844 158.8 59.5178 158.8C58.7071 158.8 58.1524 159.056 57.8538 159.568C57.5551 160.08 57.4058 160.811 57.4058 161.76V166H55.3898V153.84H57.4058V156.736ZM69.1114 157.168C70.2314 157.168 71.0794 157.413 71.6554 157.904C72.242 158.395 72.5354 159.152 72.5354 160.176V166H71.1114L70.7114 164.8H70.6474C70.274 165.269 69.8794 165.616 69.4634 165.84C69.0474 166.053 68.482 166.16 67.7674 166.16C66.9887 166.16 66.3434 165.941 65.8314 165.504C65.3194 165.067 65.0634 164.389 65.0634 163.472C65.0634 162.576 65.3887 161.904 66.0394 161.456C66.7007 161.008 67.698 160.757 69.0314 160.704L70.5354 160.656V160.224C70.5354 159.68 70.402 159.291 70.1354 159.056C69.8687 158.811 69.4954 158.688 69.0154 158.688C68.578 158.688 68.1567 158.752 67.7514 158.88C67.3567 159.008 66.962 159.157 66.5674 159.328L65.9274 157.92C66.354 157.696 66.8394 157.515 67.3834 157.376C67.938 157.237 68.514 157.168 69.1114 157.168ZM69.4794 161.936C68.594 161.968 67.9807 162.123 67.6394 162.4C67.298 162.667 67.1274 163.029 67.1274 163.488C67.1274 163.904 67.2447 164.203 67.4794 164.384C67.7247 164.555 68.0447 164.64 68.4394 164.64C69.026 164.64 69.522 164.475 69.9274 164.144C70.3327 163.803 70.5354 163.301 70.5354 162.64V161.904L69.4794 161.936ZM79.7016 157.168C80.6723 157.168 81.4296 157.419 81.9736 157.92C82.5283 158.421 82.8056 159.232 82.8056 160.352V166H80.7896V160.752C80.7896 159.451 80.2563 158.8 79.1896 158.8C78.379 158.8 77.8243 159.056 77.5256 159.568C77.227 160.08 77.0776 160.811 77.0776 161.76V166H75.0616V157.328H76.6136L76.9016 158.464H77.0136C77.291 158.016 77.6696 157.691 78.1496 157.488C78.6403 157.275 79.1576 157.168 79.7016 157.168Z" fill="white"/>
<path d="M345.128 257.232C344.84 257.232 344.584 257.216 344.36 257.184C344.136 257.152 343.944 257.109 343.784 257.056V255.344C343.955 255.387 344.136 255.424 344.328 255.456C344.52 255.488 344.723 255.504 344.936 255.504C345.213 255.504 345.464 255.451 345.688 255.344C345.923 255.237 346.109 255.04 346.248 254.752C346.387 254.464 346.456 254.053 346.456 253.52V242.576H348.504V253.472C348.504 254.805 348.189 255.765 347.56 256.352C346.941 256.939 346.131 257.232 345.128 257.232ZM353.25 244.736C353.25 245.077 353.234 245.413 353.202 245.744C353.18 246.064 353.159 246.304 353.138 246.464H353.266C353.543 246.027 353.906 245.701 354.354 245.488C354.802 245.275 355.298 245.168 355.842 245.168C356.823 245.168 357.591 245.419 358.146 245.92C358.7 246.421 358.977 247.232 358.977 248.352V254H356.962V248.752C356.962 247.451 356.428 246.8 355.362 246.8C354.551 246.8 353.996 247.056 353.698 247.568C353.399 248.08 353.25 248.811 353.25 249.76V254H351.234V241.84H353.25V244.736ZM364.955 245.168C366.075 245.168 366.923 245.413 367.499 245.904C368.086 246.395 368.379 247.152 368.379 248.176V254H366.955L366.555 252.8H366.491C366.118 253.269 365.723 253.616 365.307 253.84C364.891 254.053 364.326 254.16 363.611 254.16C362.832 254.16 362.187 253.941 361.675 253.504C361.163 253.067 360.907 252.389 360.907 251.472C360.907 250.576 361.232 249.904 361.883 249.456C362.544 249.008 363.542 248.757 364.875 248.704L366.379 248.656V248.224C366.379 247.68 366.246 247.291 365.979 247.056C365.712 246.811 365.339 246.688 364.859 246.688C364.422 246.688 364 246.752 363.595 246.88C363.2 247.008 362.806 247.157 362.411 247.328L361.771 245.92C362.198 245.696 362.683 245.515 363.227 245.376C363.782 245.237 364.358 245.168 364.955 245.168ZM365.323 249.936C364.438 249.968 363.824 250.123 363.483 250.4C363.142 250.667 362.971 251.029 362.971 251.488C362.971 251.904 363.088 252.203 363.323 252.384C363.568 252.555 363.888 252.64 364.283 252.64C364.87 252.64 365.366 252.475 365.771 252.144C366.176 251.803 366.379 251.301 366.379 250.64V249.904L365.323 249.936ZM375.449 245.168C375.588 245.168 375.737 245.173 375.897 245.184C376.068 245.195 376.212 245.216 376.329 245.248L376.153 247.12C376.047 247.099 375.919 247.083 375.769 247.072C375.62 247.051 375.487 247.04 375.369 247.04C374.943 247.04 374.543 247.131 374.169 247.312C373.796 247.483 373.492 247.755 373.257 248.128C373.033 248.491 372.921 248.949 372.921 249.504V254H370.905V245.328H372.457L372.745 246.832H372.841C373.097 246.373 373.449 245.984 373.897 245.664C374.345 245.333 374.863 245.168 375.449 245.168ZM379.937 247.616C379.937 247.893 379.926 248.187 379.905 248.496C379.883 248.805 379.862 249.099 379.841 249.376H379.889C380.017 249.184 380.177 248.965 380.369 248.72C380.561 248.475 380.742 248.256 380.913 248.064L383.473 245.328H385.761L382.289 249.072L385.985 254H383.633L380.945 250.288L379.937 251.12V254H377.937V241.84H379.937V247.616ZM389.359 244.736C389.359 245.077 389.343 245.413 389.311 245.744C389.29 246.064 389.268 246.304 389.247 246.464H389.375C389.652 246.027 390.015 245.701 390.463 245.488C390.911 245.275 391.407 245.168 391.951 245.168C392.932 245.168 393.7 245.419 394.255 245.92C394.81 246.421 395.087 247.232 395.087 248.352V254H393.071V248.752C393.071 247.451 392.538 246.8 391.471 246.8C390.66 246.8 390.106 247.056 389.807 247.568C389.508 248.08 389.359 248.811 389.359 249.76V254H387.343V241.84H389.359V244.736ZM401.065 245.168C402.185 245.168 403.033 245.413 403.609 245.904C404.195 246.395 404.489 247.152 404.489 248.176V254H403.065L402.665 252.8H402.601C402.227 253.269 401.833 253.616 401.417 253.84C401.001 254.053 400.435 254.16 399.721 254.16C398.942 254.16 398.297 253.941 397.785 253.504C397.273 253.067 397.017 252.389 397.017 251.472C397.017 250.576 397.342 249.904 397.993 249.456C398.654 249.008 399.651 248.757 400.985 248.704L402.489 248.656V248.224C402.489 247.68 402.355 247.291 402.089 247.056C401.822 246.811 401.449 246.688 400.969 246.688C400.531 246.688 400.11 246.752 399.705 246.88C399.31 247.008 398.915 247.157 398.521 247.328L397.881 245.92C398.307 245.696 398.793 245.515 399.337 245.376C399.891 245.237 400.467 245.168 401.065 245.168ZM401.433 249.936C400.547 249.968 399.934 250.123 399.593 250.4C399.251 250.667 399.081 251.029 399.081 251.488C399.081 251.904 399.198 252.203 399.433 252.384C399.678 252.555 399.998 252.64 400.393 252.64C400.979 252.64 401.475 252.475 401.881 252.144C402.286 251.803 402.489 251.301 402.489 250.64V249.904L401.433 249.936ZM411.655 245.168C412.625 245.168 413.383 245.419 413.927 245.92C414.481 246.421 414.759 247.232 414.759 248.352V254H412.743V248.752C412.743 247.451 412.209 246.8 411.143 246.8C410.332 246.8 409.777 247.056 409.479 247.568C409.18 248.08 409.031 248.811 409.031 249.76V254H407.015V245.328H408.567L408.855 246.464H408.967C409.244 246.016 409.623 245.691 410.103 245.488C410.593 245.275 411.111 245.168 411.655 245.168ZM420.144 254.16C419.131 254.16 418.315 253.781 417.696 253.024C417.078 252.267 416.768 251.152 416.768 249.68C416.768 248.187 417.083 247.061 417.712 246.304C418.342 245.547 419.168 245.168 420.192 245.168C420.832 245.168 421.355 245.291 421.76 245.536C422.176 245.781 422.507 246.08 422.752 246.432H422.848C422.816 246.283 422.784 246.053 422.752 245.744C422.72 245.435 422.704 245.147 422.704 244.88V241.84H424.72V254H423.152L422.784 252.864H422.704C422.459 253.227 422.134 253.536 421.728 253.792C421.323 254.037 420.795 254.16 420.144 254.16ZM420.752 252.528C421.499 252.528 422.022 252.315 422.32 251.888C422.63 251.461 422.79 250.816 422.8 249.952V249.696C422.8 248.768 422.651 248.059 422.352 247.568C422.064 247.067 421.52 246.816 420.72 246.816C420.102 246.816 419.627 247.072 419.296 247.584C418.976 248.085 418.816 248.795 418.816 249.712C418.816 250.629 418.982 251.328 419.312 251.808C419.643 252.288 420.123 252.528 420.752 252.528Z" fill="white"/>
<path d="M213.608 87H211.56V81.928H206.536V87H204.488V75.576H206.536V80.184H211.56V75.576H213.608V87ZM217.398 74.984C217.707 74.984 217.968 75.064 218.182 75.224C218.406 75.3733 218.518 75.6453 218.518 76.04C218.518 76.4347 218.406 76.712 218.182 76.872C217.968 77.032 217.707 77.112 217.398 77.112C217.088 77.112 216.822 77.032 216.598 76.872C216.384 76.712 216.278 76.4347 216.278 76.04C216.278 75.6453 216.384 75.3733 216.598 75.224C216.822 75.064 217.088 74.984 217.398 74.984ZM218.406 78.328V87H216.39V78.328H218.406ZM230.92 78.168C231.901 78.168 232.637 78.4187 233.128 78.92C233.629 79.4213 233.88 80.232 233.88 81.352V87H231.864V81.736C231.864 80.4453 231.373 79.8 230.392 79.8C229.688 79.8 229.186 80.0293 228.888 80.488C228.589 80.9467 228.44 81.6133 228.44 82.488V87H226.424V81.736C226.424 80.4453 225.928 79.8 224.936 79.8C224.2 79.8 223.693 80.056 223.416 80.568C223.138 81.08 223 81.8107 223 82.76V87H220.984V78.328H222.536L222.824 79.464H222.936C223.192 79.016 223.549 78.6907 224.008 78.488C224.477 78.2747 224.962 78.168 225.464 78.168C226.114 78.168 226.658 78.28 227.096 78.504C227.544 78.7173 227.885 79.0533 228.12 79.512H228.28C228.546 79.0427 228.92 78.7013 229.4 78.488C229.88 78.2747 230.386 78.168 230.92 78.168ZM239.861 78.168C240.981 78.168 241.829 78.4133 242.405 78.904C242.992 79.3947 243.285 80.152 243.285 81.176V87H241.861L241.461 85.8H241.397C241.024 86.2693 240.629 86.616 240.213 86.84C239.797 87.0533 239.232 87.16 238.517 87.16C237.739 87.16 237.093 86.9413 236.581 86.504C236.069 86.0667 235.813 85.3893 235.813 84.472C235.813 83.576 236.139 82.904 236.789 82.456C237.451 82.008 238.448 81.7573 239.781 81.704L241.285 81.656V81.224C241.285 80.68 241.152 80.2907 240.885 80.056C240.619 79.8107 240.245 79.688 239.765 79.688C239.328 79.688 238.907 79.752 238.501 79.88C238.107 80.008 237.712 80.1573 237.317 80.328L236.677 78.92C237.104 78.696 237.589 78.5147 238.133 78.376C238.688 78.2373 239.264 78.168 239.861 78.168ZM240.229 82.936C239.344 82.968 238.731 83.1227 238.389 83.4C238.048 83.6667 237.877 84.0293 237.877 84.488C237.877 84.904 237.995 85.2027 238.229 85.384C238.475 85.5547 238.795 85.64 239.189 85.64C239.776 85.64 240.272 85.4747 240.677 85.144C241.083 84.8027 241.285 84.3013 241.285 83.64V82.904L240.229 82.936ZM249.316 87.16C248.068 87.16 247.086 86.8027 246.372 86.088C245.657 85.3733 245.3 84.248 245.3 82.712C245.3 81.6453 245.476 80.7813 245.828 80.12C246.19 79.448 246.686 78.9573 247.316 78.648C247.945 78.328 248.665 78.168 249.476 78.168C250.02 78.168 250.505 78.2213 250.932 78.328C251.358 78.4347 251.721 78.5627 252.02 78.712L251.428 80.296C251.097 80.168 250.766 80.0613 250.436 79.976C250.105 79.88 249.785 79.832 249.476 79.832C248.068 79.832 247.364 80.7867 247.364 82.696C247.364 83.624 247.54 84.3227 247.892 84.792C248.254 85.2613 248.772 85.496 249.444 85.496C249.924 85.496 250.35 85.4373 250.724 85.32C251.097 85.2027 251.454 85.0427 251.796 84.84V86.584C251.465 86.776 251.108 86.92 250.724 87.016C250.35 87.112 249.881 87.16 249.316 87.16ZM255.843 77.736C255.843 78.0773 255.827 78.4133 255.795 78.744C255.774 79.064 255.753 79.304 255.731 79.464H255.859C256.137 79.0267 256.499 78.7013 256.947 78.488C257.395 78.2747 257.891 78.168 258.435 78.168C259.417 78.168 260.185 78.4187 260.739 78.92C261.294 79.4213 261.571 80.232 261.571 81.352V87H259.555V81.752C259.555 80.4507 259.022 79.8 257.955 79.8C257.145 79.8 256.59 80.056 256.291 80.568C255.993 81.08 255.843 81.8107 255.843 82.76V87H253.827V74.84H255.843V77.736ZM267.549 78.168C268.669 78.168 269.517 78.4133 270.093 78.904C270.68 79.3947 270.973 80.152 270.973 81.176V87H269.549L269.149 85.8H269.085C268.712 86.2693 268.317 86.616 267.901 86.84C267.485 87.0533 266.92 87.16 266.205 87.16C265.426 87.16 264.781 86.9413 264.269 86.504C263.757 86.0667 263.501 85.3893 263.501 84.472C263.501 83.576 263.826 82.904 264.477 82.456C265.138 82.008 266.136 81.7573 267.469 81.704L268.973 81.656V81.224C268.973 80.68 268.84 80.2907 268.573 80.056C268.306 79.8107 267.933 79.688 267.453 79.688C267.016 79.688 266.594 79.752 266.189 79.88C265.794 80.008 265.4 80.1573 265.005 80.328L264.365 78.92C264.792 78.696 265.277 78.5147 265.821 78.376C266.376 78.2373 266.952 78.168 267.549 78.168ZM267.917 82.936C267.032 82.968 266.418 83.1227 266.077 83.4C265.736 83.6667 265.565 84.0293 265.565 84.488C265.565 84.904 265.682 85.2027 265.917 85.384C266.162 85.5547 266.482 85.64 266.877 85.64C267.464 85.64 267.96 85.4747 268.365 85.144C268.77 84.8027 268.973 84.3013 268.973 83.64V82.904L267.917 82.936ZM275.515 87H273.499V74.84H275.515V87ZM285.849 75.576C287.332 75.576 288.409 75.8853 289.081 76.504C289.764 77.1227 290.105 77.976 290.105 79.064C290.105 79.7147 289.966 80.328 289.689 80.904C289.412 81.4693 288.942 81.928 288.281 82.28C287.63 82.6213 286.745 82.792 285.625 82.792H284.489V87H282.441V75.576H285.849ZM285.721 77.272H284.489V81.096H285.417C286.249 81.096 286.889 80.9467 287.337 80.648C287.796 80.3387 288.025 79.8373 288.025 79.144C288.025 78.5147 287.838 78.0453 287.465 77.736C287.092 77.4267 286.51 77.272 285.721 77.272ZM296.699 78.168C296.838 78.168 296.987 78.1733 297.147 78.184C297.318 78.1947 297.462 78.216 297.579 78.248L297.403 80.12C297.297 80.0987 297.169 80.0827 297.019 80.072C296.87 80.0507 296.737 80.04 296.619 80.04C296.193 80.04 295.793 80.1307 295.419 80.312C295.046 80.4827 294.742 80.7547 294.507 81.128C294.283 81.4907 294.171 81.9493 294.171 82.504V87H292.155V78.328H293.707L293.995 79.832H294.091C294.347 79.3733 294.699 78.984 295.147 78.664C295.595 78.3333 296.113 78.168 296.699 78.168ZM302.33 78.168C303.45 78.168 304.298 78.4133 304.874 78.904C305.461 79.3947 305.754 80.152 305.754 81.176V87H304.33L303.93 85.8H303.866C303.493 86.2693 303.098 86.616 302.682 86.84C302.266 87.0533 301.701 87.16 300.986 87.16C300.207 87.16 299.562 86.9413 299.05 86.504C298.538 86.0667 298.282 85.3893 298.282 84.472C298.282 83.576 298.607 82.904 299.258 82.456C299.919 82.008 300.917 81.7573 302.25 81.704L303.754 81.656V81.224C303.754 80.68 303.621 80.2907 303.354 80.056C303.087 79.8107 302.714 79.688 302.234 79.688C301.797 79.688 301.375 79.752 300.97 79.88C300.575 80.008 300.181 80.1573 299.786 80.328L299.146 78.92C299.573 78.696 300.058 78.5147 300.602 78.376C301.157 78.2373 301.733 78.168 302.33 78.168ZM302.698 82.936C301.813 82.968 301.199 83.1227 300.858 83.4C300.517 83.6667 300.346 84.0293 300.346 84.488C300.346 84.904 300.463 85.2027 300.698 85.384C300.943 85.5547 301.263 85.64 301.658 85.64C302.245 85.64 302.741 85.4747 303.146 85.144C303.551 84.8027 303.754 84.3013 303.754 83.64V82.904L302.698 82.936ZM311.144 87.16C310.131 87.16 309.315 86.7813 308.696 86.024C308.078 85.2667 307.768 84.152 307.768 82.68C307.768 81.1867 308.083 80.0613 308.712 79.304C309.342 78.5467 310.168 78.168 311.192 78.168C311.832 78.168 312.355 78.2907 312.76 78.536C313.176 78.7813 313.507 79.08 313.752 79.432H313.848C313.816 79.2827 313.784 79.0533 313.752 78.744C313.72 78.4347 313.704 78.1467 313.704 77.88V74.84H315.72V87H314.152L313.784 85.864H313.704C313.459 86.2267 313.134 86.536 312.728 86.792C312.323 87.0373 311.795 87.16 311.144 87.16ZM311.752 85.528C312.499 85.528 313.022 85.3147 313.32 84.888C313.63 84.4613 313.79 83.816 313.8 82.952V82.696C313.8 81.768 313.651 81.0587 313.352 80.568C313.064 80.0667 312.52 79.816 311.72 79.816C311.102 79.816 310.627 80.072 310.296 80.584C309.976 81.0853 309.816 81.7947 309.816 82.712C309.816 83.6293 309.982 84.328 310.312 84.808C310.643 85.288 311.123 85.528 311.752 85.528ZM321.784 78.168C322.947 78.168 323.864 78.5147 324.536 79.208C325.219 79.9013 325.56 80.8667 325.56 82.104V83.128H319.832C319.853 83.9173 320.072 84.5307 320.488 84.968C320.904 85.3947 321.48 85.608 322.216 85.608C322.771 85.608 323.272 85.5547 323.72 85.448C324.168 85.3307 324.627 85.1653 325.096 84.952V86.568C324.669 86.7707 324.227 86.92 323.768 87.016C323.309 87.112 322.76 87.16 322.12 87.16C321.277 87.16 320.525 87 319.864 86.68C319.213 86.3493 318.701 85.8533 318.328 85.192C317.965 84.5307 317.784 83.7093 317.784 82.728C317.784 81.2453 318.152 80.1147 318.888 79.336C319.624 78.5573 320.589 78.168 321.784 78.168ZM321.784 79.656C321.24 79.656 320.797 79.832 320.456 80.184C320.125 80.5253 319.933 81.0373 319.88 81.72H323.608C323.597 81.1227 323.443 80.632 323.144 80.248C322.856 79.8533 322.403 79.656 321.784 79.656ZM333.497 84.488C333.497 85.3627 333.182 86.0293 332.553 86.488C331.934 86.936 331.044 87.16 329.881 87.16C329.273 87.16 328.75 87.1173 328.313 87.032C327.886 86.9467 327.47 86.8133 327.065 86.632V84.92C327.492 85.1227 327.961 85.2933 328.473 85.432C328.996 85.5707 329.486 85.64 329.945 85.64C330.5 85.64 330.9 85.5547 331.145 85.384C331.39 85.2133 331.513 84.984 331.513 84.696C331.513 84.5253 331.465 84.376 331.369 84.248C331.273 84.1093 331.081 83.96 330.793 83.8C330.516 83.64 330.1 83.4427 329.545 83.208C328.99 82.9947 328.526 82.776 328.153 82.552C327.79 82.3173 327.513 82.0453 327.321 81.736C327.14 81.4267 327.049 81.0267 327.049 80.536C327.049 79.7573 327.353 79.1707 327.961 78.776C328.58 78.3707 329.401 78.168 330.425 78.168C330.958 78.168 331.46 78.2213 331.929 78.328C332.409 78.4347 332.889 78.5947 333.369 78.808L332.729 80.296C332.324 80.1253 331.929 79.9813 331.545 79.864C331.161 79.7467 330.766 79.688 330.361 79.688C329.476 79.688 329.033 79.9387 329.033 80.44C329.033 80.6213 329.086 80.776 329.193 80.904C329.31 81.032 329.508 81.1707 329.785 81.32C330.073 81.4587 330.478 81.6293 331.001 81.832C331.513 82.0347 331.956 82.248 332.329 82.472C332.702 82.6853 332.99 82.952 333.193 83.272C333.396 83.592 333.497 83.9973 333.497 84.488ZM337.453 77.736C337.453 78.0773 337.437 78.4133 337.405 78.744C337.383 79.064 337.362 79.304 337.341 79.464H337.469C337.746 79.0267 338.109 78.7013 338.557 78.488C339.005 78.2747 339.501 78.168 340.045 78.168C341.026 78.168 341.794 78.4187 342.349 78.92C342.903 79.4213 343.181 80.232 343.181 81.352V87H341.165V81.752C341.165 80.4507 340.631 79.8 339.565 79.8C338.754 79.8 338.199 80.056 337.901 80.568C337.602 81.08 337.453 81.8107 337.453 82.76V87H335.437V74.84H337.453V77.736Z" fill="white"/>
<path d="M202.4 214L199.264 204.64H199.2C199.211 204.853 199.227 205.157 199.248 205.552C199.269 205.936 199.285 206.357 199.296 206.816C199.317 207.264 199.328 207.685 199.328 208.08V214H197.488V202.576H200.336L203.344 211.552H203.408L206.544 202.576H209.392V214H207.44V207.984C207.44 207.621 207.445 207.227 207.456 206.8C207.477 206.363 207.493 205.952 207.504 205.568C207.525 205.184 207.541 204.88 207.552 204.656H207.488L204.224 214H202.4ZM215.611 205.168C216.731 205.168 217.579 205.413 218.155 205.904C218.742 206.395 219.035 207.152 219.035 208.176V214H217.611L217.211 212.8H217.147C216.774 213.269 216.379 213.616 215.963 213.84C215.547 214.053 214.982 214.16 214.267 214.16C213.489 214.16 212.843 213.941 212.331 213.504C211.819 213.067 211.563 212.389 211.563 211.472C211.563 210.576 211.889 209.904 212.539 209.456C213.201 209.008 214.198 208.757 215.531 208.704L217.035 208.656V208.224C217.035 207.68 216.902 207.291 216.635 207.056C216.369 206.811 215.995 206.688 215.515 206.688C215.078 206.688 214.657 206.752 214.251 206.88C213.857 207.008 213.462 207.157 213.067 207.328L212.427 205.92C212.854 205.696 213.339 205.515 213.883 205.376C214.438 205.237 215.014 205.168 215.611 205.168ZM215.979 209.936C215.094 209.968 214.481 210.123 214.139 210.4C213.798 210.667 213.627 211.029 213.627 211.488C213.627 211.904 213.745 212.203 213.979 212.384C214.225 212.555 214.545 212.64 214.939 212.64C215.526 212.64 216.022 212.475 216.427 212.144C216.833 211.803 217.035 211.301 217.035 210.64V209.904L215.979 209.936ZM224.426 214.16C223.412 214.16 222.596 213.781 221.978 213.024C221.359 212.267 221.05 211.152 221.05 209.68C221.05 208.187 221.364 207.061 221.994 206.304C222.623 205.547 223.45 205.168 224.474 205.168C225.114 205.168 225.636 205.291 226.042 205.536C226.458 205.781 226.788 206.08 227.034 206.432H227.13C227.098 206.283 227.066 206.053 227.034 205.744C227.002 205.435 226.986 205.147 226.986 204.88V201.84H229.002V214H227.434L227.066 212.864H226.986C226.74 213.227 226.415 213.536 226.01 213.792C225.604 214.037 225.076 214.16 224.426 214.16ZM225.034 212.528C225.78 212.528 226.303 212.315 226.602 211.888C226.911 211.461 227.071 210.816 227.082 209.952V209.696C227.082 208.768 226.932 208.059 226.634 207.568C226.346 207.067 225.802 206.816 225.002 206.816C224.383 206.816 223.908 207.072 223.578 207.584C223.258 208.085 223.098 208.795 223.098 209.712C223.098 210.629 223.263 211.328 223.594 211.808C223.924 212.288 224.404 212.528 225.034 212.528ZM233.593 204.736C233.593 205.077 233.577 205.413 233.545 205.744C233.524 206.064 233.503 206.304 233.481 206.464H233.609C233.887 206.027 234.249 205.701 234.697 205.488C235.145 205.275 235.641 205.168 236.185 205.168C237.167 205.168 237.935 205.419 238.489 205.92C239.044 206.421 239.321 207.232 239.321 208.352V214H237.305V208.752C237.305 207.451 236.772 206.8 235.705 206.8C234.895 206.8 234.34 207.056 234.041 207.568C233.743 208.08 233.593 208.811 233.593 209.76V214H231.577V201.84H233.593V204.736ZM240.547 205.328H242.739L244.467 210.224C244.584 210.533 244.68 210.837 244.755 211.136C244.83 211.435 244.883 211.739 244.915 212.048H244.979C245.022 211.781 245.086 211.488 245.171 211.168C245.256 210.848 245.352 210.533 245.459 210.224L247.123 205.328H249.299L245.603 215.152C245.272 216.016 244.819 216.677 244.243 217.136C243.678 217.605 242.979 217.84 242.147 217.84C241.88 217.84 241.651 217.824 241.459 217.792C241.267 217.771 241.096 217.744 240.947 217.712V216.112C241.064 216.133 241.203 216.155 241.363 216.176C241.534 216.197 241.71 216.208 241.891 216.208C242.392 216.208 242.787 216.059 243.075 215.76C243.374 215.472 243.603 215.109 243.763 214.672L244.019 213.968L240.547 205.328ZM254.049 205.168C255.169 205.168 256.017 205.413 256.593 205.904C257.18 206.395 257.473 207.152 257.473 208.176V214H256.049L255.649 212.8H255.585C255.212 213.269 254.817 213.616 254.401 213.84C253.985 214.053 253.42 214.16 252.705 214.16C251.926 214.16 251.281 213.941 250.769 213.504C250.257 213.067 250.001 212.389 250.001 211.472C250.001 210.576 250.326 209.904 250.977 209.456C251.638 209.008 252.636 208.757 253.969 208.704L255.473 208.656V208.224C255.473 207.68 255.34 207.291 255.073 207.056C254.806 206.811 254.433 206.688 253.953 206.688C253.516 206.688 253.094 206.752 252.689 206.88C252.294 207.008 251.9 207.157 251.505 207.328L250.865 205.92C251.292 205.696 251.777 205.515 252.321 205.376C252.876 205.237 253.452 205.168 254.049 205.168ZM254.417 209.936C253.532 209.968 252.918 210.123 252.577 210.4C252.236 210.667 252.065 211.029 252.065 211.488C252.065 211.904 252.182 212.203 252.417 212.384C252.662 212.555 252.982 212.64 253.377 212.64C253.964 212.64 254.46 212.475 254.865 212.144C255.27 211.803 255.473 211.301 255.473 210.64V209.904L254.417 209.936ZM267.755 202.576C269.238 202.576 270.315 202.885 270.987 203.504C271.67 204.123 272.011 204.976 272.011 206.064C272.011 206.715 271.873 207.328 271.595 207.904C271.318 208.469 270.849 208.928 270.187 209.28C269.537 209.621 268.651 209.792 267.531 209.792H266.395V214H264.347V202.576H267.755ZM267.627 204.272H266.395V208.096H267.323C268.155 208.096 268.795 207.947 269.243 207.648C269.702 207.339 269.931 206.837 269.931 206.144C269.931 205.515 269.745 205.045 269.371 204.736C268.998 204.427 268.417 204.272 267.627 204.272ZM278.606 205.168C278.744 205.168 278.894 205.173 279.054 205.184C279.224 205.195 279.368 205.216 279.486 205.248L279.31 207.12C279.203 207.099 279.075 207.083 278.926 207.072C278.776 207.051 278.643 207.04 278.526 207.04C278.099 207.04 277.699 207.131 277.326 207.312C276.952 207.483 276.648 207.755 276.414 208.128C276.19 208.491 276.078 208.949 276.078 209.504V214H274.062V205.328H275.614L275.902 206.832H275.998C276.254 206.373 276.606 205.984 277.054 205.664C277.502 205.333 278.019 205.168 278.606 205.168ZM284.236 205.168C285.356 205.168 286.204 205.413 286.78 205.904C287.367 206.395 287.66 207.152 287.66 208.176V214H286.236L285.836 212.8H285.772C285.399 213.269 285.004 213.616 284.588 213.84C284.172 214.053 283.607 214.16 282.892 214.16C282.114 214.16 281.468 213.941 280.956 213.504C280.444 213.067 280.188 212.389 280.188 211.472C280.188 210.576 280.514 209.904 281.164 209.456C281.826 209.008 282.823 208.757 284.156 208.704L285.66 208.656V208.224C285.66 207.68 285.527 207.291 285.26 207.056C284.994 206.811 284.62 206.688 284.14 206.688C283.703 206.688 283.282 206.752 282.876 206.88C282.482 207.008 282.087 207.157 281.692 207.328L281.052 205.92C281.479 205.696 281.964 205.515 282.508 205.376C283.063 205.237 283.639 205.168 284.236 205.168ZM284.604 209.936C283.719 209.968 283.106 210.123 282.764 210.4C282.423 210.667 282.252 211.029 282.252 211.488C282.252 211.904 282.37 212.203 282.604 212.384C282.85 212.555 283.17 212.64 283.564 212.64C284.151 212.64 284.647 212.475 285.052 212.144C285.458 211.803 285.66 211.301 285.66 210.64V209.904L284.604 209.936ZM293.051 214.16C292.037 214.16 291.221 213.781 290.603 213.024C289.984 212.267 289.675 211.152 289.675 209.68C289.675 208.187 289.989 207.061 290.619 206.304C291.248 205.547 292.075 205.168 293.099 205.168C293.739 205.168 294.261 205.291 294.667 205.536C295.083 205.781 295.413 206.08 295.659 206.432H295.755C295.723 206.283 295.691 206.053 295.659 205.744C295.627 205.435 295.611 205.147 295.611 204.88V201.84H297.627V214H296.059L295.691 212.864H295.611C295.365 213.227 295.04 213.536 294.635 213.792C294.229 214.037 293.701 214.16 293.051 214.16ZM293.659 212.528C294.405 212.528 294.928 212.315 295.227 211.888C295.536 211.461 295.696 210.816 295.707 209.952V209.696C295.707 208.768 295.557 208.059 295.259 207.568C294.971 207.067 294.427 206.816 293.627 206.816C293.008 206.816 292.533 207.072 292.203 207.584C291.883 208.085 291.723 208.795 291.723 209.712C291.723 210.629 291.888 211.328 292.219 211.808C292.549 212.288 293.029 212.528 293.659 212.528ZM303.69 205.168C304.853 205.168 305.77 205.515 306.442 206.208C307.125 206.901 307.466 207.867 307.466 209.104V210.128H301.738C301.76 210.917 301.978 211.531 302.394 211.968C302.81 212.395 303.386 212.608 304.122 212.608C304.677 212.608 305.178 212.555 305.626 212.448C306.074 212.331 306.533 212.165 307.002 211.952V213.568C306.576 213.771 306.133 213.92 305.674 214.016C305.216 214.112 304.666 214.16 304.026 214.16C303.184 214.16 302.432 214 301.77 213.68C301.12 213.349 300.608 212.853 300.234 212.192C299.872 211.531 299.69 210.709 299.69 209.728C299.69 208.245 300.058 207.115 300.794 206.336C301.53 205.557 302.496 205.168 303.69 205.168ZM303.69 206.656C303.146 206.656 302.704 206.832 302.362 207.184C302.032 207.525 301.84 208.037 301.786 208.72H305.514C305.504 208.123 305.349 207.632 305.05 207.248C304.762 206.853 304.309 206.656 303.69 206.656ZM315.403 211.488C315.403 212.363 315.088 213.029 314.459 213.488C313.84 213.936 312.95 214.16 311.787 214.16C311.179 214.16 310.656 214.117 310.219 214.032C309.792 213.947 309.376 213.813 308.971 213.632V211.92C309.398 212.123 309.867 212.293 310.379 212.432C310.902 212.571 311.392 212.64 311.851 212.64C312.406 212.64 312.806 212.555 313.051 212.384C313.296 212.213 313.419 211.984 313.419 211.696C313.419 211.525 313.371 211.376 313.275 211.248C313.179 211.109 312.987 210.96 312.699 210.8C312.422 210.64 312.006 210.443 311.451 210.208C310.896 209.995 310.432 209.776 310.059 209.552C309.696 209.317 309.419 209.045 309.227 208.736C309.046 208.427 308.955 208.027 308.955 207.536C308.955 206.757 309.259 206.171 309.867 205.776C310.486 205.371 311.307 205.168 312.331 205.168C312.864 205.168 313.366 205.221 313.835 205.328C314.315 205.435 314.795 205.595 315.275 205.808L314.635 207.296C314.23 207.125 313.835 206.981 313.451 206.864C313.067 206.747 312.672 206.688 312.267 206.688C311.382 206.688 310.939 206.939 310.939 207.44C310.939 207.621 310.992 207.776 311.099 207.904C311.216 208.032 311.414 208.171 311.691 208.32C311.979 208.459 312.384 208.629 312.907 208.832C313.419 209.035 313.862 209.248 314.235 209.472C314.608 209.685 314.896 209.952 315.099 210.272C315.302 210.592 315.403 210.997 315.403 211.488ZM319.359 204.736C319.359 205.077 319.343 205.413 319.311 205.744C319.29 206.064 319.268 206.304 319.247 206.464H319.375C319.652 206.027 320.015 205.701 320.463 205.488C320.911 205.275 321.407 205.168 321.951 205.168C322.932 205.168 323.7 205.419 324.255 205.92C324.81 206.421 325.087 207.232 325.087 208.352V214H323.071V208.752C323.071 207.451 322.538 206.8 321.471 206.8C320.66 206.8 320.106 207.056 319.807 207.568C319.508 208.08 319.359 208.811 319.359 209.76V214H317.343V201.84H319.359V204.736Z" fill="white"/>
<path d="M244.544 115.968C244.544 116.757 244.373 117.472 244.032 118.112C243.701 118.741 243.195 119.243 242.512 119.616C241.829 119.979 240.965 120.16 239.92 120.16C238.437 120.16 237.312 119.776 236.544 119.008C235.776 118.229 235.392 117.205 235.392 115.936V108.576H237.44V115.728C237.44 116.667 237.653 117.349 238.08 117.776C238.507 118.203 239.141 118.416 239.984 118.416C240.869 118.416 241.509 118.187 241.904 117.728C242.309 117.259 242.512 116.587 242.512 115.712V108.576H244.544V115.968ZM250.609 118.544C250.854 118.544 251.094 118.523 251.329 118.48C251.574 118.427 251.798 118.368 252.001 118.304V119.808C251.788 119.904 251.51 119.984 251.169 120.048C250.828 120.123 250.47 120.16 250.097 120.16C249.606 120.16 249.158 120.08 248.753 119.92C248.348 119.749 248.028 119.461 247.793 119.056C247.558 118.651 247.441 118.085 247.441 117.36V112.848H246.273V111.968L247.553 111.264L248.193 109.424H249.457V111.328H251.921V112.848H249.457V117.344C249.457 117.749 249.564 118.053 249.777 118.256C249.99 118.448 250.268 118.544 250.609 118.544ZM257.109 118.544C257.354 118.544 257.594 118.523 257.829 118.48C258.074 118.427 258.298 118.368 258.501 118.304V119.808C258.288 119.904 258.01 119.984 257.669 120.048C257.328 120.123 256.97 120.16 256.597 120.16C256.106 120.16 255.658 120.08 255.253 119.92C254.848 119.749 254.528 119.461 254.293 119.056C254.058 118.651 253.941 118.085 253.941 117.36V112.848H252.773V111.968L254.053 111.264L254.693 109.424H255.957V111.328H258.421V112.848H255.957V117.344C255.957 117.749 256.064 118.053 256.277 118.256C256.49 118.448 256.768 118.544 257.109 118.544ZM263.705 111.168C264.825 111.168 265.673 111.413 266.249 111.904C266.836 112.395 267.129 113.152 267.129 114.176V120H265.705L265.305 118.8H265.241C264.868 119.269 264.473 119.616 264.057 119.84C263.641 120.053 263.076 120.16 262.361 120.16C261.582 120.16 260.937 119.941 260.425 119.504C259.913 119.067 259.657 118.389 259.657 117.472C259.657 116.576 259.982 115.904 260.633 115.456C261.294 115.008 262.292 114.757 263.625 114.704L265.129 114.656V114.224C265.129 113.68 264.996 113.291 264.729 113.056C264.462 112.811 264.089 112.688 263.609 112.688C263.172 112.688 262.75 112.752 262.345 112.88C261.95 113.008 261.556 113.157 261.161 113.328L260.521 111.92C260.948 111.696 261.433 111.515 261.977 111.376C262.532 111.237 263.108 111.168 263.705 111.168ZM264.073 115.936C263.188 115.968 262.574 116.123 262.233 116.4C261.892 116.667 261.721 117.029 261.721 117.488C261.721 117.904 261.838 118.203 262.073 118.384C262.318 118.555 262.638 118.64 263.033 118.64C263.62 118.64 264.116 118.475 264.521 118.144C264.926 117.803 265.129 117.301 265.129 116.64V115.904L264.073 115.936ZM274.199 111.168C274.338 111.168 274.487 111.173 274.647 111.184C274.818 111.195 274.962 111.216 275.079 111.248L274.903 113.12C274.797 113.099 274.669 113.083 274.519 113.072C274.37 113.051 274.237 113.04 274.119 113.04C273.693 113.04 273.293 113.131 272.919 113.312C272.546 113.483 272.242 113.755 272.007 114.128C271.783 114.491 271.671 114.949 271.671 115.504V120H269.655V111.328H271.207L271.495 112.832H271.591C271.847 112.373 272.199 111.984 272.647 111.664C273.095 111.333 273.613 111.168 274.199 111.168ZM279.83 111.168C280.95 111.168 281.798 111.413 282.374 111.904C282.961 112.395 283.254 113.152 283.254 114.176V120H281.83L281.43 118.8H281.366C280.993 119.269 280.598 119.616 280.182 119.84C279.766 120.053 279.201 120.16 278.486 120.16C277.707 120.16 277.062 119.941 276.55 119.504C276.038 119.067 275.782 118.389 275.782 117.472C275.782 116.576 276.107 115.904 276.758 115.456C277.419 115.008 278.417 114.757 279.75 114.704L281.254 114.656V114.224C281.254 113.68 281.121 113.291 280.854 113.056C280.587 112.811 280.214 112.688 279.734 112.688C279.297 112.688 278.875 112.752 278.47 112.88C278.075 113.008 277.681 113.157 277.286 113.328L276.646 111.92C277.073 111.696 277.558 111.515 278.102 111.376C278.657 111.237 279.233 111.168 279.83 111.168ZM280.198 115.936C279.313 115.968 278.699 116.123 278.358 116.4C278.017 116.667 277.846 117.029 277.846 117.488C277.846 117.904 277.963 118.203 278.198 118.384C278.443 118.555 278.763 118.64 279.158 118.64C279.745 118.64 280.241 118.475 280.646 118.144C281.051 117.803 281.254 117.301 281.254 116.64V115.904L280.198 115.936ZM287.78 113.616C287.78 113.893 287.77 114.187 287.748 114.496C287.727 114.805 287.706 115.099 287.684 115.376H287.732C287.86 115.184 288.02 114.965 288.212 114.72C288.404 114.475 288.586 114.256 288.756 114.064L291.316 111.328H293.604L290.132 115.072L293.828 120H291.476L288.788 116.288L287.78 117.12V120H285.78V107.84H287.78V113.616ZM297.203 110.736C297.203 111.077 297.187 111.413 297.155 111.744C297.133 112.064 297.112 112.304 297.091 112.464H297.219C297.496 112.027 297.859 111.701 298.307 111.488C298.755 111.275 299.251 111.168 299.795 111.168C300.776 111.168 301.544 111.419 302.099 111.92C302.653 112.421 302.931 113.232 302.931 114.352V120H300.915V114.752C300.915 113.451 300.381 112.8 299.315 112.8C298.504 112.8 297.949 113.056 297.651 113.568C297.352 114.08 297.203 114.811 297.203 115.76V120H295.187V107.84H297.203V110.736ZM308.908 111.168C310.028 111.168 310.876 111.413 311.452 111.904C312.039 112.395 312.332 113.152 312.332 114.176V120H310.908L310.508 118.8H310.444C310.071 119.269 309.676 119.616 309.26 119.84C308.844 120.053 308.279 120.16 307.564 120.16C306.786 120.16 306.14 119.941 305.628 119.504C305.116 119.067 304.86 118.389 304.86 117.472C304.86 116.576 305.186 115.904 305.836 115.456C306.498 115.008 307.495 114.757 308.828 114.704L310.332 114.656V114.224C310.332 113.68 310.199 113.291 309.932 113.056C309.666 112.811 309.292 112.688 308.812 112.688C308.375 112.688 307.954 112.752 307.548 112.88C307.154 113.008 306.759 113.157 306.364 113.328L305.724 111.92C306.151 111.696 306.636 111.515 307.18 111.376C307.735 111.237 308.311 111.168 308.908 111.168ZM309.276 115.936C308.391 115.968 307.778 116.123 307.436 116.4C307.095 116.667 306.924 117.029 306.924 117.488C306.924 117.904 307.042 118.203 307.276 118.384C307.522 118.555 307.842 118.64 308.236 118.64C308.823 118.64 309.319 118.475 309.724 118.144C310.13 117.803 310.332 117.301 310.332 116.64V115.904L309.276 115.936ZM319.499 111.168C320.469 111.168 321.227 111.419 321.771 111.92C322.325 112.421 322.602 113.232 322.602 114.352V120H320.587V114.752C320.587 113.451 320.053 112.8 318.987 112.8C318.176 112.8 317.621 113.056 317.323 113.568C317.024 114.08 316.875 114.811 316.875 115.76V120H314.859V111.328H316.411L316.699 112.464H316.811C317.088 112.016 317.467 111.691 317.947 111.488C318.437 111.275 318.955 111.168 319.499 111.168ZM327.988 120.16C326.975 120.16 326.159 119.781 325.54 119.024C324.921 118.267 324.612 117.152 324.612 115.68C324.612 114.187 324.927 113.061 325.556 112.304C326.185 111.547 327.012 111.168 328.036 111.168C328.676 111.168 329.199 111.291 329.604 111.536C330.02 111.781 330.351 112.08 330.596 112.432H330.692C330.66 112.283 330.628 112.053 330.596 111.744C330.564 111.435 330.548 111.147 330.548 110.88V107.84H332.564V120H330.996L330.628 118.864H330.548C330.303 119.227 329.977 119.536 329.572 119.792C329.167 120.037 328.639 120.16 327.988 120.16ZM328.596 118.528C329.343 118.528 329.865 118.315 330.164 117.888C330.473 117.461 330.633 116.816 330.644 115.952V115.696C330.644 114.768 330.495 114.059 330.196 113.568C329.908 113.067 329.364 112.816 328.564 112.816C327.945 112.816 327.471 113.072 327.14 113.584C326.82 114.085 326.66 114.795 326.66 115.712C326.66 116.629 326.825 117.328 327.156 117.808C327.487 118.288 327.967 118.528 328.596 118.528Z" fill="white"/>
</svg>
